<?xml version="1.0" encoding="utf-8"?>
<!-- Generator: Adobe Illustrator 16.0.0, SVG Export Plug-In . SVG Version: 6.00 Build 0)  -->
<!DOCTYPE svg PUBLIC "-//W3C//DTD SVG 1.1//EN" "http://www.w3.org/Graphics/SVG/1.1/DTD/svg11.dtd">

<svg version="1.1" xmlns="http://www.w3.org/2000/svg" aria-hidden="true" focusable="false" xmlns:xlink="http://www.w3.org/1999/xlink" x="0px" y="0px">
    <symbol id="webcallback" width="23" height="31" viewBox="0 0 23 31">
        <g fill="none" fill-rule="evenodd" stroke="currentColor" stroke-width="1.53">
            <path d="M22.232 9.296l-9.039 5.098M17.715 16.015l-5.058-1.318 1.537-4.924"></path>
            <path d="M11.351 21.397c-1.033.417-2.116-1.312-3.818-4.69-1.505-3.47-2.14-5.408-1.159-5.935.985-.53 2.956-1.587 2.94-2.087-.013-.5-.702-6.984-.702-6.984L5.583.788S.108 1.898.831 9.432c.16 1.673.748 3.865 1.586 6.119a36.25 36.25 0 0 0 1.28 3.058c.592 1.272 1.24 2.5 1.914 3.593l.003-.009c1.054 1.74 2.175 3.267 3.218 4.32 5.326 5.378 9.684 1.882 9.684 1.882l1.238-2.912s-4.542-4.679-4.917-5.01c-.374-.332-2.449.505-3.486.924z"></path>
        </g>
    </symbol>

    <symbol id="callback" width="35" height="36" viewBox="0 0 35 36">
        <g fill="currentColor" fill-rule="evenodd">
            <path d="M31.485 30.369l-.084.082c-.453.439-.966.937-1.406 1.463-.85.916-1.837 1.337-3.112 1.337-.09 0-.184-.005-.282-.01-2.455-.155-4.669-1.081-6.33-1.871-4.524-2.19-8.478-5.287-11.756-9.208-2.705-3.256-4.525-6.287-5.73-9.538-.738-1.97-1.028-3.57-.912-5.033a3.823 3.823 0 0 1 1.144-2.452l2.69-2.69c.845-.82 1.803-.805 2.628.033.396.364.79.762 1.226 1.207l3.103 3.12c.444.447.67.894.67 1.33 0 .439-.227.887-.673 1.333l-.824.835c-.618.624-1.2 1.213-1.92 1.859-.584.583-.487 1.177-.336 1.629l.03.083c.56 1.34 1.344 2.615 2.545 4.124 2.168 2.674 4.455 4.758 6.991 6.369.267.174.545.314.79.438l.187.096c.287.143.548.277.822.449l.064.034c.615.314 1.292.194 1.812-.327l2.716-2.714c.835-.834 1.784-.835 2.581.02l4.357 4.348c.853.854.842 1.786-.03 2.696-.29.309-.594.606-.96.958m1.185 1.403l.1-.096a33.87 33.87 0 0 0 1.024-1.018c1.59-1.656 1.585-3.675-.013-5.27l-4.35-4.351c-.723-.75-1.63-1.165-2.562-1.174-.956 0-1.894.41-2.639 1.156l-2.444 2.442a.25.25 0 0 1-.29.046l-.544-.277a8.586 8.586 0 0 1-.793-.432c-2.357-1.496-4.499-3.446-6.55-5.96-.947-1.2-1.578-2.173-2.048-3.16l-.09-.187a.25.25 0 0 1 .053-.29l.154-.145a46.452 46.452 0 0 0 1.64-1.621c.214-.221.44-.448.666-.672.794-.796 1.214-1.708 1.214-2.638 0-.937-.419-1.848-1.213-2.635L11.82 3.324c-.206-.206-.402-.408-.607-.62l-.134-.136a39.325 39.325 0 0 0-1.456-1.442C8.87.388 7.978 0 7.038 0 6.09 0 5.18.39 4.403 1.132l-2.7 2.7A5.625 5.625 0 0 0 .03 7.428c-.139 1.737.182 3.586 1.011 5.817 1.271 3.454 3.19 6.658 6.037 10.082 3.451 4.123 7.616 7.384 12.378 9.692 1.818.86 4.26 1.874 7.007 2.05.132.006.27.01.413.01 1.816 0 3.276-.626 4.462-1.915l.05-.058c.378-.456.817-.883 1.282-1.334"/>
            <path d="M29.508 12.764c.332-.025.634-.175.849-.432a1.247 1.247 0 0 0-1.043-2.053l-3.889.304 8.56-8.56a1.248 1.248 0 0 0 0-1.763 1.248 1.248 0 0 0-1.762 0l-8.588 8.588.31-3.966a1.247 1.247 0 0 0-2.485-.194l-.571 7.335c-.004.056-.01.11-.004.164a1.247 1.247 0 0 0 1.339 1.146l7.284-.569z"/>
        </g>
    </symbol>

    <symbol id="calendar"  width="48px" height="42px" viewBox="0 0 48 42">
        <g id="375-New" stroke="none" stroke-width="1" fill="none" fill-rule="evenodd" stroke-linecap="round" stroke-linejoin="round">
            <g id="Artboard" transform="translate(-3.000000, -3.000000)" stroke="currentColor" stroke-width="2">
                <g id="Group" transform="translate(3.000000, 0.000000)">
                    <g id="fonc/calendrier" transform="translate(1.000000, 4.000000)">
                        <line x1="11.251025" y1="6.53612083" x2="11.251025" y2="0.306954167" id="Stroke-187"></line>
                        <line x1="30.8173167" y1="3.50107917" x2="16.0014833" y2="3.50107917" id="Stroke-188"></line>
                        <line x1="35.5687333" y1="6.53612083" x2="35.5687333" y2="0.306954167" id="Stroke-189"></line>
                        <polyline id="Stroke-190" points="20.3626667 22.1885792 26.8314167 22.1885792 26.8314167 27.9385792 19.964 27.9385792 19.964 33.6885792 26.5113333 33.6885792"></polyline>
                        <line x1="1.907275" y1="13.5036833" x2="45.1520667" y2="13.5036833" id="Stroke-191"></line>
                        <path d="M7.68353333,3.48143333 L2.47403333,3.48143333 C1.60674167,3.48143333 0.901408333,4.17718333 0.901408333,5.044475 L0.901408333,37.8961417 C0.901408333,38.762475 1.60674167,39.4591833 2.47403333,39.4591833 L44.2257417,39.4591833 C45.0930333,39.4591833 45.7983667,38.762475 45.7983667,37.8961417 L45.7983667,5.044475 C45.7983667,4.17718333 45.0930333,3.48143333 44.2257417,3.48143333 L39.974575,3.48143333" id="Stroke-192"></path>
                    </g>
                </g>
            </g>
        </g>
    </symbol>

    <symbol id="faq" width="14" height="27" viewBox="0 0 14 27">
        <defs>
            <path id="a" d="M0 0h13.893v26.203H0z"/>
        </defs>
        <g fill="none" fill-rule="evenodd">
            <path fill="currentColor" d="M.8 1.224C5.442-.83 10.962-.312 12.934 2.88c1.973 3.196.81 6.998-2.684 9.957-2.89 2.45-3.785 3.796-3.785 5.509v.873H4.72v-.874c0-2.348 1.158-4.09 4.403-6.84 2.896-2.454 3.783-5.348 2.326-7.707-1.415-2.288-6.002-2.72-9.944-.977l-.798.354L0 1.576l.8-.352zM5.591 22.71a1.747 1.747 0 1 1 0 3.494 1.747 1.747 0 0 1 0-3.494z" />
        </g>
    </symbol>

    <symbol id="fake" width="34" height="35" viewBox="0 0 34 35">
        <g fill="currentColor" fill-rule="evenodd">
            <path d="M16.863 32.1C8.617 32.1 1.91 25.331 1.91 17.014c0-4.023 1.557-7.809 4.384-10.66C9.12 3.5 12.874 1.93 16.863 1.93c8.246 0 14.955 6.767 14.955 15.085 0 8.317-6.709 15.084-14.955 15.084m0-32.099C7.565 0 0 7.633 0 17.015 0 26.397 7.565 34.03 16.863 34.03c9.298 0 16.864-7.633 16.864-17.015C33.727 7.633 26.161 0 16.863 0"/>
            <path d="M16.926 22.132c-.507 0-.915.168-1.246.515-.333.35-.495.785-.495 1.334 0 .55.162.985.495 1.334.33.346.739.515 1.246.515.508 0 .92-.169 1.26-.517.342-.349.508-.785.508-1.332s-.166-.983-.507-1.332c-.34-.348-.752-.517-1.261-.517M19.85 15.738c.34-.365.665-.756.965-1.163.294-.397.543-.82.74-1.259a3.49 3.49 0 0 0 .288-1.445c0-.697-.116-1.316-.343-1.838a3.532 3.532 0 0 0-.967-1.307h-.001a4.261 4.261 0 0 0-1.5-.8 6.502 6.502 0 0 0-1.917-.27c-.94 0-1.795.21-2.543.626a7.053 7.053 0 0 0-1.873 1.524l-.033.033-.052.077a.895.895 0 0 0-.217.567.92.92 0 0 0 .919.92.912.912 0 0 0 .63-.258l.148-.139a5.285 5.285 0 0 1 1.176-.914 3.296 3.296 0 0 1 1.629-.408c.748 0 1.347.224 1.78.667.43.441.65 1.025.65 1.736 0 .453-.11.883-.327 1.277-.204.371-.461.75-.764 1.126-.298.37-.614.75-.948 1.137-.32.372-.61.78-.861 1.214a5.438 5.438 0 0 0-.565 1.415 4.281 4.281 0 0 0-.09 1.465h2.223a3.46 3.46 0 0 1 .187-1.396c.178-.484.413-.945.7-1.373.285-.42.61-.829.967-1.214"/>
        </g>
    </symbol>

    <symbol id="cobrowse" width="34" height="35" viewBox="0 0 34 35">
        <g fill="currentColor" fill-rule="evenodd">
            <path d="M16.863 32.1C8.617 32.1 1.91 25.331 1.91 17.014c0-4.023 1.557-7.809 4.384-10.66C9.12 3.5 12.874 1.93 16.863 1.93c8.246 0 14.955 6.767 14.955 15.085 0 8.317-6.709 15.084-14.955 15.084m0-32.099C7.565 0 0 7.633 0 17.015 0 26.397 7.565 34.03 16.863 34.03c9.298 0 16.864-7.633 16.864-17.015C33.727 7.633 26.161 0 16.863 0"/>
            <path d="M16.926 22.132c-.507 0-.915.168-1.246.515-.333.35-.495.785-.495 1.334 0 .55.162.985.495 1.334.33.346.739.515 1.246.515.508 0 .92-.169 1.26-.517.342-.349.508-.785.508-1.332s-.166-.983-.507-1.332c-.34-.348-.752-.517-1.261-.517M19.85 15.738c.34-.365.665-.756.965-1.163.294-.397.543-.82.74-1.259a3.49 3.49 0 0 0 .288-1.445c0-.697-.116-1.316-.343-1.838a3.532 3.532 0 0 0-.967-1.307h-.001a4.261 4.261 0 0 0-1.5-.8 6.502 6.502 0 0 0-1.917-.27c-.94 0-1.795.21-2.543.626a7.053 7.053 0 0 0-1.873 1.524l-.033.033-.052.077a.895.895 0 0 0-.217.567.92.92 0 0 0 .919.92.912.912 0 0 0 .63-.258l.148-.139a5.285 5.285 0 0 1 1.176-.914 3.296 3.296 0 0 1 1.629-.408c.748 0 1.347.224 1.78.667.43.441.65 1.025.65 1.736 0 .453-.11.883-.327 1.277-.204.371-.461.75-.764 1.126-.298.37-.614.75-.948 1.137-.32.372-.61.78-.861 1.214a5.438 5.438 0 0 0-.565 1.415 4.281 4.281 0 0 0-.09 1.465h2.223a3.46 3.46 0 0 1 .187-1.396c.178-.484.413-.945.7-1.373.285-.42.61-.829.967-1.214"/>
        </g>
    </symbol>

    <symbol id="chatlive" width="29" height="30" viewBox="0 0 29 30">
        <g fill="none" fill-rule="evenodd">
            <path stroke="currentColor" stroke-width="1.53" d="M21.259 21.254v6.814l6.727-5.09V8.106h-18.9v13.148z"/>
            <path fill="currentColor" d="M13.393 16.087h2.057V14.03h-2.057zM17.508 16.087h2.057V14.03h-2.057zM21.622 16.087h2.057V14.03h-2.057z"/>
            <path stroke="currentColor" stroke-width="1.53" d="M13.07 4.462V.765H.764v4.597l4.352 4.403v-4.05"/>
        </g>
    </symbol>

    <symbol id="ctc" width="21" height="31" viewBox="0 0 21 31">
        <path fill="none" fill-rule="evenodd" stroke="currentColor" stroke-width="1.53" d="M11.351 21.397c-1.033.417-2.116-1.312-3.818-4.69-1.505-3.47-2.14-5.408-1.159-5.935.985-.53 2.956-1.587 2.94-2.087-.013-.5-.702-6.984-.702-6.984L5.583.788S.108 1.898.831 9.432c.16 1.673.748 3.865 1.586 6.119a36.25 36.25 0 0 0 1.28 3.058c.592 1.272 1.24 2.5 1.914 3.593l.003-.009c1.054 1.74 2.175 3.267 3.218 4.32 5.326 5.378 9.684 1.882 9.684 1.882l1.238-2.912s-4.542-4.679-4.917-5.01c-.374-.332-2.449.505-3.486.924z"/>
    </symbol>

    <symbol id="conseiller" width="26" height="25" viewBox="0 0 26 25">
        <defs>
            <path id="a" d="M0 .075h25.052v8.46H0z"/>
        </defs>
        <g fill="none" fill-rule="evenodd">
            <g transform="translate(0 16.176)">
                <path fill="currentColor" d="M14.537 5.167l-1.093-2.15 2.868-1.6c.453.044.992.18 1.573.401l-3.348 3.349zm-3.967.021L6.977 1.782c.565-.205 1.1-.33 1.576-.368l3.113 1.62-1.096 2.154zm11.007-2.78C19.786 1.013 17.544.075 16 .075V.08L12.55 2.007 8.85.08V.075H8.837C5.726.085 0 3.57 0 8.535h1.319c0-2.723 2.157-4.954 4.364-6.163l5.262 4.99 1.614-3.175 1.626 3.196 4.977-4.978c2.25 1.216 4.57 3.431 4.57 6.13h1.32c0-2.205-1.235-4.382-3.475-6.127z" />
            </g>
            <path fill="currentColor" d="M12.526 1.318c1.843 0 3.48.952 4.526 2.42a4.472 4.472 0 0 0-1.273-.302c-1.538-.127-3.228.522-4.273 1.613C9.781 6.572 8.225 6.78 6.9 6.853c-.02.002-.036.012-.057.014.288-3.11 2.727-5.549 5.683-5.549m0 12.333c-2.94 0-5.366-2.41-5.676-5.497.03.004.056.017.087.017l.038-.001c1.657-.093 3.46-.417 5.444-2.17.672-.7 1.935-1.352 3.251-1.248.995.082 1.81.58 2.423 1.477.008.012.02.018.03.03.074.396.114.805.114 1.225 0 3.4-2.562 6.167-5.711 6.167m0 1.319c3.876 0 7.03-3.358 7.03-7.486 0-4.127-3.154-7.484-7.03-7.484-3.876 0-7.03 3.357-7.03 7.484 0 4.128 3.154 7.486 7.03 7.486"/>
        </g>
    </symbol>

    <symbol id="cross-close" width="52" height="52" viewBox="0 0 52 52">
        <g fill="none" fill-rule="evenodd" stroke="#FFF" transform="translate(1 1)" stroke-linecap="round" stroke-width="2">
            <path d="M32.247 17L17 32.247M17 17l15.247 15.247"/>
        </g>
    </symbol>

    <symbol id="cross-close-small" width="13" height="14" viewBox="0 0 13 14">
        <g fill="none" fill-rule="evenodd" stroke="currentColor" stroke-linecap="square" stroke-width="4">
            <path d="M1 1.571L11.874 12.28 1 1.571zM1.083 12.362L11.791 1.488 1.083 12.362z"/>
        </g>
    </symbol>

    <symbol id="reduce" width="14" height="3" viewBox="0 0 14 3">
        <path fill="none" fill-rule="evenodd" stroke="currentColor" stroke-linecap="square" stroke-width="4" d="M1.5 1.5h11"/>
    </symbol>

    <symbol id="cross-open" width="14" height="15" viewBox="0 0 14 15">
        <g fill="none" fill-rule="evenodd" stroke="currentColor" stroke-linecap="square" stroke-width="4">
            <path d="M1.5 7.5h11M7 2v11"/>
        </g>
    </symbol>


    <symbol id="ctc-round" width="37" height="54" viewBox="0 0 37 54">
        <path fill="none" fill-rule="evenodd" stroke="#FFF" stroke-width="2" d="M20.235 38.143c-1.842.743-3.772-2.339-6.806-8.36-2.684-6.186-3.817-9.64-2.066-10.58 1.755-.944 5.268-2.83 5.241-3.721-.024-.892-1.253-12.45-1.253-12.45L9.953 1.405S.193 3.383 1.482 16.813c.285 2.983 1.333 6.89 2.826 10.908a64.62 64.62 0 0 0 2.283 5.452c1.055 2.267 2.21 4.455 3.411 6.404l.005-.016c1.879 3.103 3.878 5.824 5.737 7.703 9.495 9.584 17.263 3.353 17.263 3.353l2.206-5.19s-8.096-8.341-8.765-8.931c-.667-.592-4.365.9-6.213 1.647z"/>
    </symbol>

    <symbol id="wcb-round" width="41" height="54" viewBox="0 0 41 54">
        <g fill="none" fill-rule="evenodd" stroke="#FFF" stroke-width="2">
            <path d="M39.631 16.571l-16.112 9.088M31.58 28.549l-9.018-2.35 2.74-8.778"/>
            <path d="M20.235 38.143c-1.842.743-3.772-2.339-6.806-8.36-2.684-6.186-3.817-9.64-2.066-10.58 1.755-.944 5.268-2.83 5.241-3.721-.024-.892-1.253-12.45-1.253-12.45L9.953 1.405S.193 3.383 1.482 16.813c.285 2.983 1.333 6.89 2.826 10.908a64.62 64.62 0 0 0 2.283 5.452c1.055 2.267 2.21 4.455 3.411 6.404l.005-.016c1.879 3.103 3.878 5.824 5.737 7.703 9.495 9.584 17.263 3.353 17.263 3.353l2.206-5.19s-8.096-8.341-8.765-8.931c-.667-.592-4.365.9-6.213 1.647z"/>
        </g>
    </symbol>

    <symbol id="wcb-round-accepted" width="94" height="94" viewBox="0 0 94 94">
        <g fill="none" fill-rule="evenodd">
            <g>
                <rect id="a" fill="#3D3D44" width="94" height="94" rx="47"/>
                <rect id="b" fill="#505057" width="84" height="84" x="5" y="5" rx="42"/>
            </g>
            <g stroke="#FFF" stroke-width="2">
                <path d="M33.353 56.645c5.204 5.265 11.55 8.377 17.57 9.173 0 0 1.238.267 2.296-.779l3.489-3.45s1.76-1.39.367-2.8l-4.991-5.05s-1.97-1.71-3.767-.039l-1.85 1.777s-1.222 1.496-2.703.562l-.646-.443a34.3 34.3 0 0 1-4.453-3.732l-.228-.244a34.282 34.282 0 0 1-3.28-4.077l-.435-.652c-.916-1.49.594-2.695.594-2.695l1.798-1.829c1.692-1.777.004-3.768.004-3.768l-4.991-5.049c-1.393-1.41-2.805.335-2.805.335l-3.49 3.449c-1.057 1.045-.806 2.286-.806 2.286.685 5.683 3.423 11.676 8.092 16.755l.235.27z"/>
                <path stroke-linecap="round" stroke-linejoin="round" d="M50.953 31L45 37.083 51 43"/>
                <path stroke-linecap="round" stroke-linejoin="round" d="M46 37.007L60 37l-.03 10"/>
            </g>
        </g>
    </symbol>

    <symbol id="wcb-round-ongoing" width="94" height="94" viewBox="0 0 94 94">
        <g fill="none" fill-rule="evenodd">
            <rect id="a" fill="#3D3D44" width="94" height="94" rx="47"/>
            <rect id="b" fill="#505057" width="84" height="84" x="5" y="5" rx="42"/>
            <path stroke="#FFF" stroke-linecap="round" stroke-linejoin="round" stroke-width="2" d="M55.398 36.084a7.573 7.573 0 0 1 7.573 7.573M58.644 43.657a3.606 3.606 0 0 0-3.606-3.607M66.577 43.465C66.577 37.133 61.444 32 55.112 32M53.815 47.802c2.885.534 5.056 2.842 5.056 5.608 0 2.561-1.86 4.73-4.427 5.46a.796.796 0 0 0-.513.424c-.149.326-.224.917.08 1.975.043.148-.013.35-.165.373-1.322.202-3.049-2.439-3.253-2.396-2.504.537-6.056-1.654-6.65-3.959M40.119 52.599c-.187.248-2.875 3.867-4.844 3.567-.226-.034-.31-.336-.246-.557.454-1.575.342-2.454.12-2.939a1.186 1.186 0 0 0-.764-.631l-.965-.286C29.718 50.828 27 47.76 27 44.119c0-4.374 3.922-7.92 8.76-7.92h6.892c4.838 0 8.76 3.546 8.76 7.92 0 4.374-3.922 7.92-8.76 7.92 0 0-1.419.06-1.827.06 0 0-.378.063-.706.5z"/>
            <path fill="#FFF" d="M36.225 44.235a1.224 1.224 0 1 1-2.448 0 1.224 1.224 0 0 1 2.448 0M40.697 44.235a1.224 1.224 0 1 1-2.448 0 1.224 1.224 0 0 1 2.448 0M45.169 44.235a1.224 1.224 0 1 1-2.448 0 1.224 1.224 0 0 1 2.448 0"/>
        </g>
    </symbol>

    <symbol id="wcb-round-completed" width="94" height="94" viewBox="0 0 94 94">
        <g fill="none" fill-rule="evenodd">
            <rect id="a" fill="#3D3D44" width="94" height="94" rx="47"/>
            <rect id="b" fill="#505057" width="84" height="84" x="5" y="5" rx="42"/>
            <g stroke="#FFF" stroke-linecap="round" stroke-linejoin="round" stroke-width="2">
                <path d="M59.144 47.24c0 7.064-5.727 12.791-12.793 12.791-7.063 0-12.79-5.727-12.79-12.791M37.294 39.202c0 .988-.8 1.786-1.788 1.786a1.786 1.786 0 1 1 0-3.574c.988 0 1.788.8 1.788 1.788zM58.356 39.202a1.787 1.787 0 1 1-3.574 0 1.787 1.787 0 0 1 3.574 0z"/>
                <path d="M66.249 46.625c0 10.837-8.786 19.623-19.625 19.623C35.786 66.248 27 57.462 27 46.625 27 35.785 35.786 27 46.624 27c10.839 0 19.625 8.786 19.625 19.625z"/>
            </g>
        </g>
    </symbol>

    <symbol id="wcb-round-unassigned-number" width="94" height="94" viewBox="0 0 94 94">
        <g fill="none" fill-rule="evenodd">
            <rect id="a" fill="#3D3D44" width="94" height="94" rx="47"/>
            <rect id="b" fill="#505057" width="84" height="84" x="5" y="5" rx="42"/>
            <path stroke="#FFF" stroke-width="2" d="M36.353 55.645c5.204 5.265 11.55 8.377 17.57 9.173 0 0 1.238.267 2.296-.779l3.489-3.45s1.76-1.39.367-2.8l-4.991-5.05s-1.97-1.71-3.767-.039l-1.85 1.777s-1.222 1.496-2.703.562l-.646-.443a34.3 34.3 0 0 1-4.453-3.732l-.228-.244a34.282 34.282 0 0 1-3.28-4.077l-.435-.652c-.916-1.49.594-2.695.594-2.695l1.798-1.829c1.692-1.777.004-3.768.004-3.768l-4.991-5.049c-1.393-1.41-2.805.335-2.805.335l-3.49 3.449c-1.057 1.045-.806 2.286-.806 2.286.685 5.683 3.423 11.676 8.092 16.755l.235.27z"/>
            <path stroke="#FFF" stroke-linecap="round" stroke-linejoin="round" stroke-width="2" d="M65.787 38.264a7.51 7.51 0 1 1-15.018 0 7.51 7.51 0 0 1 15.018 0z"/>
            <path fill="#FFF" d="M58.144 40.09a.871.871 0 0 0-.655.274.95.95 0 0 0-.258.687c0 .281.085.507.259.688a.867.867 0 0 0 .654.273.89.89 0 0 0 .66-.272.937.937 0 0 0 .263-.689.934.934 0 0 0-.264-.687.886.886 0 0 0-.66-.273M60.295 34.836a1.701 1.701 0 0 0-.467-.63 2.03 2.03 0 0 0-.713-.38 3.035 3.035 0 0 0-.888-.126c-.44 0-.84.099-1.193.294a3.26 3.26 0 0 0-.859.698l-.047.06a.536.536 0 0 0-.128.34.55.55 0 0 0 .927.397l.069-.066c.152-.155.316-.283.486-.378.193-.108.412-.162.65-.162.29 0 .52.084.683.252.162.167.246.39.246.665 0 .176-.043.342-.126.494a3.304 3.304 0 0 1-.324.477c-.13.161-.27.329-.415.499-.147.169-.28.357-.396.557a2.547 2.547 0 0 0-.265.663 2.021 2.021 0 0 0-.042.695l.012.13h1.264l-.01-.152c-.011-.203.014-.391.075-.559.075-.202.173-.397.293-.575.124-.183.262-.357.414-.519.153-.166.3-.342.436-.526.135-.184.25-.38.341-.582.093-.205.14-.44.14-.697 0-.328-.055-.62-.163-.87"/>
        </g>
    </symbol>

    <symbol id="wcb-round-no-advisor" width="94" height="94" viewBox="0 0 94 94">
        <g fill="none" fill-rule="evenodd">
            <rect id="a" fill="#3D3D44" width="94" height="94" rx="47"/>
            <rect id="b" fill="#505057" width="84" height="84" x="5" y="5" rx="42"/>

            <g stroke="#FFF" stroke-linecap="round" stroke-linejoin="round" stroke-width="2">
                <path d="M42.588 51.47v2.236c0 .588-.117 1.176-1.588 1.764h-.059c-.647.236-1.47.472-2.412.648-6.294 1.235-6.353 5.706-6.353 5.882v.765H49.236"/>
                <path d="M42.588 53l4.294 2.412-1.588 3.176-3.647-3.412M51.647 52.823l-4.588 2.589 1.53 3.177 3.646-3.413M49.764 52.588c.648-.176 1.765-1.176 1.765-1.176l.06-.06c.94-.94 1.705-2.234 2.117-3.646v-.118l.06-.058c1.704-.706 1.822-4.06 1.822-4.06 0-1.411-.412-1.764-1.235-2.176l-.117-.059v-1.588c0-5.176-3.648-7.47-7.236-7.47-3.588 0-7.236 2.294-7.236 7.47v1.588l-.117.06c-.824.411-1.235.823-1.235 2.235 0 .058.176 3.352 1.823 4.058l.059.06v.117c.412 1.353 1.176 2.588 2.118 3.647l.059.059c.411.353 1 .882 1.705 1.176"/>
                <path d="M39.765 39.882c.94 0 4.176-.176 6.588-2.823 0 0 1.353-1.647 3.941-1.706 0 0 2.824 0 3.647 1.824M45.059 62.765H62.118V62c0-.176-.06-4.647-6.353-5.882-1-.177-1.765-.412-2.412-.647h-.059c-1.47-.589-1.588-1.177-1.588-1.765V51.47M28 55.882L64 33"/>
            </g>
        </g>
    </symbol>

    <symbol id="wcb-round-disrupted" width="94" height="94" viewBox="0 0 94 94">
        <g fill="none" fill-rule="evenodd">
            <rect id="a" fill="#3D3D44" width="94" height="94" rx="47"/>
            <rect id="b" fill="#505057" width="84" height="84" x="5" y="5" rx="42"/>
            <g stroke="#FFF" stroke-width="2">
                <path d="M35.353 56.645c5.204 5.265 11.55 8.377 17.57 9.173 0 0 1.238.267 2.296-.779l3.489-3.45s1.76-1.39.367-2.8l-4.991-5.05s-1.97-1.71-3.767-.039l-1.85 1.777s-1.222 1.496-2.703.562l-.646-.443a34.3 34.3 0 0 1-4.453-3.732l-.228-.244a34.282 34.282 0 0 1-3.28-4.077l-.435-.652c-.916-1.49.594-2.695.594-2.695l1.798-1.829c1.692-1.777.004-3.768.004-3.768l-4.991-5.049c-1.393-1.41-2.805.335-2.805.335l-3.49 3.449c-1.057 1.045-.806 2.286-.806 2.286.685 5.683 3.423 11.676 8.092 16.755l.235.27z"/>
                <path stroke-linecap="round" stroke-linejoin="round" d="M65.018 39.51a7.51 7.51 0 1 1-15.018 0 7.51 7.51 0 0 1 15.018 0zM55.632 41.61l4.285-4.285M59.917 41.61l-4.285-4.285"/>
            </g>
        </g>
    </symbol>

    <symbol id="wcb-round-calling" width="94" height="94" viewBox="0 0 94 94">
        <g fill="none" fill-rule="evenodd">
            <rect id="a" fill="#3D3D44" width="94" height="94" rx="47"/>
            <rect width="84" height="84" x="5" y="5" fill="#505057" rx="42"/>
            <g stroke="#FFF" stroke-width="2">
                <path stroke-linecap="round" stroke-linejoin="round" d="M46.556 34.426c7.605 0 13.77 6.165 13.77 13.771M52.457 48.197A6.558 6.558 0 0 0 45.9 41.64M66.883 47.849C66.883 36.334 57.55 27 46.035 27"/>
                <path d="M35.353 57.44c5.204 5.264 11.549 8.377 17.57 9.173 0 0 1.238.266 2.296-.779l3.489-3.45s1.76-1.391.366-2.8l-4.99-5.05s-1.97-1.71-3.768-.039l-1.85 1.777s-1.221 1.495-2.702.562l-.646-.443a34.3 34.3 0 0 1-4.454-3.732l-.227-.244a34.282 34.282 0 0 1-3.28-4.077l-.435-.652c-.917-1.49.594-2.695.594-2.695l1.798-1.829c1.692-1.778.004-3.768.004-3.768l-4.991-5.049c-1.394-1.41-2.805.334-2.805.334l-3.49 3.45c-1.057 1.045-.806 2.286-.806 2.286.684 5.683 3.423 11.676 8.092 16.754l.235.27z"/>
            </g>
        </g>
    </symbol>

    <symbol id="wcb-round-error" width="94" height="94" viewBox="0 0 94 94">
        <g fill="none" fill-rule="evenodd">
            <rect id="a" fill="#3D3D44" width="94" height="94" rx="47"/>
            <rect id="b" fill="#505057" width="84" height="84" x="5" y="5" rx="42"/>

            <g stroke="#FFF" stroke-width="2">
                <path stroke-linecap="round" d="M54 31v1M54 46.026V47M54 34.98V39M51.626 39H54M46 39h1M61 39h.79"/>
                <path stroke-linecap="round" stroke-linejoin="round" d="M61.062 34.229l4.928-3.549M22.734 62.066l24.919-18.183"/>
                <path d="M32.353 56.645c5.204 5.265 11.55 8.377 17.57 9.173 0 0 1.238.267 2.296-.779l3.489-3.45s1.76-1.39.367-2.8l-4.991-5.05s-1.97-1.71-3.767-.039l-1.85 1.777s-1.222 1.496-2.703.562l-.646-.443a34.3 34.3 0 0 1-4.453-3.732l-.228-.244a34.282 34.282 0 0 1-3.28-4.077l-.435-.652c-.916-1.49.594-2.695.594-2.695l1.798-1.829c1.692-1.777.004-3.768.004-3.768l-4.991-5.049c-1.393-1.41-2.805.335-2.805.335l-3.49 3.449c-1.057 1.045-.806 2.286-.806 2.286.685 5.683 3.423 11.676 8.092 16.755l.235.27z"/>
                <path stroke-linecap="round" stroke-linejoin="round" d="M62 39a8 8 0 1 1-16 0 8 8 0 0 1 16 0z"/>
            </g>
        </g>
    </symbol>

    <symbol id="wcb-round-missed" width="95" height="94" viewBox="0 0 95 94">
        <g fill="none" fill-rule="evenodd">
            <rect id="a" fill="#3D3D44" width="94" height="94" x=".5" rx="47"/>
            <rect id="b" fill="#505057" width="84" height="84" x="5.5" y="5" rx="42"/>
            <g stroke="#FFF" stroke-width="2">
                <path d="M47.323 48.696c-7.402-.043-14.09 2.242-18.91 5.936 0 0-1.064.688-1.073 2.175l-.028 4.906s-.26 2.229 1.722 2.24l7.1.042s2.602-.183 2.69-2.637l.053-2.564s-.194-1.921 1.513-2.308l.77-.144a34.3 34.3 0 0 1 5.788-.51l.334.012c1.785.057 3.524.25 5.202.563l.768.154c1.702.405 1.486 2.325 1.486 2.325l.022 2.565c.06 2.453 2.661 2.667 2.661 2.667l7.1.04c1.982.012 1.747-2.22 1.747-2.22l.029-4.906c.008-1.486-1.047-2.187-1.047-2.187-4.503-3.534-10.677-5.835-17.57-6.125l-.357-.024z"/>
                <path stroke-linecap="round" stroke-linejoin="round" d="M35.683 35.485v-9.023h8.933"/>
                <path stroke-linecap="round" stroke-linejoin="round" d="M36.515 27.46l13.098 12.89 9.771-6.654"/>
            </g>
        </g>
    </symbol>

    <symbol id="wcb-round-invalid" width="94" height="94" viewBox="0 0 94 94">
        <g fill="none" fill-rule="evenodd">
            <rect id="a" fill="#3D3D44" width="94" height="94" rx="47"/>
            <rect id="b" fill="#505057" width="84" height="84" x="5" y="5" rx="42"/>
            <g stroke="#FFF" stroke-width="2">
                <path d="M36.353 55.89c5.204 5.265 11.55 8.378 17.57 9.174 0 0 1.238.266 2.296-.779l3.489-3.45s1.76-1.391.367-2.8l-4.991-5.05s-1.97-1.711-3.767-.039l-1.85 1.776s-1.222 1.496-2.703.562l-.646-.442a34.3 34.3 0 0 1-4.453-3.732l-.228-.245a34.282 34.282 0 0 1-3.28-4.076l-.435-.652c-.916-1.49.594-2.695.594-2.695l1.798-1.83c1.692-1.777.004-3.767.004-3.767l-4.991-5.05c-1.393-1.409-2.805.335-2.805.335l-3.49 3.45c-1.057 1.045-.806 2.286-.806 2.286.685 5.683 3.423 11.676 8.092 16.754l.235.27z"/>
                <path stroke-linecap="round" stroke-linejoin="round" d="M65.787 38.51a7.51 7.51 0 1 1-15.018 0 7.51 7.51 0 0 1 15.018 0zM55.333 38.993h5.717"/>
            </g>
        </g>
    </symbol>

    <symbol id="conseiller-round" width="52" height="52" viewBox="0 0 52 52">
        <g fill="none" fill-rule="evenodd" stroke="#FFF" stroke-width="2">
            <path d="M17.637 34.951l8.375 4.358-3.737 7.35L11.52 36.462M39.985 36.461L29.79 46.66l-3.737-7.35 7.833-4.373M33.207 35.106c5.423 0 17.498 6.775 17.498 16.265M18.298 35.106C12.46 35.106 1.22 41.88 1.22 51.37M39.246 15.45c0 7.862-5.947 14.234-13.283 14.234-7.337 0-13.284-6.372-13.284-14.233 0-7.86 5.947-14.232 13.284-14.232 7.336 0 13.283 6.373 13.283 14.232z"/>
            <path stroke-linecap="round" stroke-linejoin="round" d="M14.31 15.508c3.166-.178 6.646-.759 10.438-4.103 3.166-3.302 10.087-5.023 13.958.652"/>
        </g>
    </symbol>


    <symbol id="chatlive-round" width="61" height="63" viewBox="0 0 61 63">
          <g fill="none" fill-rule="evenodd">
            <path stroke="currentColor" stroke-width="2" d="M45.493 45.483v14.663L59.97 49.192V17.188H19.298v28.295z"/>
            <path fill="currentColor" d="M28.566 34.364h4.427v-4.428h-4.427zM37.42 34.364h4.428v-4.428h-4.427zM46.274 34.364H50.7v-4.428h-4.427z"/>
            <path stroke="currentColor" stroke-width="2" d="M27.87 9.346V1.392H1.392v9.89l9.364 9.477v-8.715"/>
        </g>
    </symbol>

    <symbol id="valid" width="20" height="18" viewBox="0 0 20 18">
        <path fill="#FFFFFF" d="M19.2,8.6L2.1,0.6c-0.1,0-0.1,0-0.2,0c-0.1,0-0.2,0-0.3,0.1C1.5,0.8,1.4,1,1.5,1.1L2.3,7
            c0,0.2,0.2,0.3,0.4,0.4L10.8,9l-8.1,1.6c-0.2,0-0.3,0.2-0.4,0.4l-0.9,5.8c0,0.2,0,0.3,0.2,0.4c0.1,0.1,0.2,0.1,0.3,0.1
            c0.1,0,0.1,0,0.2,0l17.1-7.9c0.2-0.1,0.3-0.2,0.3-0.4S19.4,8.7,19.2,8.6z"/>
    </symbol>

    <symbol id="3955" width="182" height="38" viewBox="0 0 182 38">
        <g fill="none" fill-rule="evenodd">
            <path fill="#FFF" stroke="#9293A1" d="M1 35.865h179.739V2.869H1z"/>
            <g fill="#9293A1">
                <path d="M9.735 23.603l3.254-.395c.104.83.383 1.464.839 1.903a2.29 2.29 0 0 0 1.65.658c.695 0 1.279-.264 1.753-.79.475-.526.712-1.236.712-2.13 0-.845-.227-1.515-.682-2.01-.454-.495-1.009-.742-1.663-.742-.43 0-.945.084-1.543.252l.37-2.741c.91.024 1.604-.174 2.083-.592.478-.42.718-.975.718-1.67 0-.59-.176-1.06-.527-1.412-.351-.35-.818-.526-1.4-.526-.574 0-1.065.2-1.471.598-.407.4-.655.981-.742 1.747l-3.1-.526c.216-1.061.54-1.909.976-2.543.434-.634 1.04-1.132 1.819-1.496.777-.362 1.649-.544 2.614-.544 1.651 0 2.975.527 3.973 1.58.82.861 1.232 1.834 1.232 2.919 0 1.54-.842 2.768-2.525 3.686 1.005.215 1.808.697 2.411 1.447.603.75.903 1.656.903 2.717 0 1.54-.562 2.852-1.686 3.937-1.125 1.084-2.526 1.627-4.2 1.627-1.588 0-2.904-.457-3.949-1.37-1.045-.914-1.652-2.108-1.819-3.584M31.165 16.854c0-1.085-.249-1.927-.748-2.525-.498-.598-1.075-.897-1.728-.897-.623 0-1.139.245-1.55.736-.41.49-.616 1.294-.616 2.411 0 1.133.223 1.964.67 2.495.447.53 1.005.795 1.675.795.646 0 1.19-.255 1.633-.765.443-.51.664-1.26.664-2.25m-7.61 7.347l3.255-.359c.08.663.287 1.153.622 1.472.335.32.778.478 1.328.478.694 0 1.285-.318 1.771-.957.487-.638.798-1.962.933-3.972-.845.981-1.902 1.472-3.17 1.472-1.38 0-2.571-.533-3.572-1.598-1-1.065-1.502-2.451-1.502-4.158 0-1.78.529-3.213 1.586-4.302 1.057-1.089 2.403-1.633 4.038-1.633 1.779 0 3.239.688 4.38 2.064 1.14 1.376 1.71 3.64 1.71 6.79 0 3.207-.593 5.521-1.782 6.94-1.189 1.42-2.736 2.13-4.643 2.13-1.372 0-2.481-.364-3.327-1.095-.845-.73-1.387-1.82-1.627-3.272M37.16 23.746l3.35-.346c.096.758.38 1.357.85 1.8.47.443 1.013.664 1.628.664.701 0 1.296-.285 1.782-.855.487-.57.73-1.43.73-2.578 0-1.078-.24-1.886-.724-2.424-.482-.539-1.11-.808-1.885-.808-.965 0-1.83.427-2.596 1.28l-2.728-.394 1.723-9.13h8.89v3.147H41.84l-.527 2.98a5.084 5.084 0 0 1 2.297-.563c1.492 0 2.757.542 3.794 1.627 1.036 1.085 1.555 2.494 1.555 4.224 0 1.444-.419 2.733-1.256 3.865-1.14 1.548-2.724 2.322-4.75 2.322-1.62 0-2.94-.435-3.961-1.304-1.022-.87-1.632-2.039-1.83-3.507M50.789 23.746l3.35-.346c.096.758.38 1.357.85 1.8.47.443 1.013.664 1.627.664.702 0 1.297-.285 1.783-.855.487-.57.73-1.43.73-2.578 0-1.078-.241-1.886-.724-2.424-.483-.539-1.111-.808-1.885-.808-.965 0-1.83.427-2.596 1.28l-2.728-.394 1.723-9.13h8.89v3.147h-6.341l-.527 2.98a5.084 5.084 0 0 1 2.297-.563c1.492 0 2.756.542 3.794 1.627 1.036 1.085 1.555 2.494 1.555 4.224 0 1.444-.419 2.733-1.256 3.865-1.141 1.548-2.724 2.322-4.75 2.322-1.62 0-2.94-.435-3.961-1.304-1.022-.87-1.632-2.039-1.831-3.507"/>
            </g>
            <path fill="#9293A1" fill-rule="nonzero" d="M70.554.925v9.201l8.83 9.332-8.83 9.332v9.135h102v-37z"/>
            <g fill="#FFF">
                <path d="M84.272 9.145c0-1.954 1.044-2.525 2.403-2.548 1.277-.03 2.733.16 3.433.39v1.484c-.776-.076-2.526-.134-2.966-.134-.742-.02-1.17.038-1.17.956v.482c0 .782.269.95.957.95h1.402c1.741 0 2.1 1.525 2.1 2.616v.657c0 2.24-1.256 2.655-2.458 2.655-1.516 0-2.509-.103-3.427-.403v-1.484a36.86 36.86 0 0 0 3.094.148c.51 0 1.092-.093 1.092-.85v-.53c0-.562-.153-.921-.8-.921h-1.366c-2.142 0-2.294-1.757-2.294-2.615v-.853zM94.596 12.38c.354 0 .538-.193.538-.534 0-.904-.117-1.07-.933-1.07-.897 0-1.228.058-1.215 1.604h1.61zm-.494-3.047c1.864 0 2.73.236 2.73 2.609 0 1.276-.63 1.793-1.795 1.793h-2.051c0 1.292.439 1.369 1.36 1.369.982 0 1.455.006 2.365-.142v1.273c-.909.377-2.293.378-3.3.378-1.638 0-2.123-1.055-2.123-3.68 0-3.076.77-3.6 2.814-3.6zM97.75 9.388h1.432l.266.903c.447-.48 1.048-.976 1.849-.976.279 0 .546.011.718.085v1.822a11.2 11.2 0 0 0-.931-.036c-.703 0-1.214.127-1.636.795v4.565H97.75V9.388zM104.253 9.388l1.407 4.947 1.452-4.947h1.81l-2.338 7.158h-1.899l-2.249-7.158zM109.616 16.546h1.698V9.388h-1.698v7.158zm-.061-9.417c0-.202.097-.336.29-.336h1.275c.182 0 .272.148.272.336v1.196c0 .202-.102.31-.272.31h-1.274c-.17 0-.291-.121-.291-.31V7.129zM114.432 9.32c.631 0 1.904.042 2.967.425v1.173s-1.16-.081-2.24-.081c-.78 0-1.151.052-1.151 2.162 0 1.833.278 2.097 1.151 2.097 1.117 0 2.325-.125 2.325-.125v1.184c-.943.532-2.045.444-3.052.458-1.201 0-2.123-.697-2.123-3.653 0-2.949.885-3.64 2.123-3.64M121.367 12.38c.354 0 .538-.193.538-.534 0-.904-.117-1.07-.933-1.07-.897 0-1.228.058-1.215 1.604h1.61zm-.494-3.047c1.864 0 2.73.236 2.73 2.609 0 1.276-.63 1.793-1.795 1.793h-2.051c0 1.292.44 1.369 1.36 1.369.981 0 1.455.006 2.365-.142v1.273c-.91.377-2.293.378-3.3.378-1.638 0-2.123-1.055-2.123-3.68 0-3.076.77-3.6 2.814-3.6zM129.953 18.669h1.007c.609 0 .682-.334.682-.753v-.522c0-.403-.15-.65-.632-.656h-1.307c-.236 0-.512-.048-.512-.048v1.19c0 .709.338.789.762.789m-.005-5.649h.682c.644 0 .827-.463.817-1.111-.017-.745-.23-1.032-.829-1.032h-.652c-.688 0-.8.498-.8 1.032 0 .66.181 1.111.782 1.111m-1.77.871c-.535-.377-.711-1.268-.711-1.982 0-1.713.78-2.548 2.233-2.548h3.918v1.125l-.715.243c.113.298.242.544.242 1.402 0 1.031-.385 2.407-2.202 2.407h-1.492c-.195 0-.491 0-.491.314s.222.363.491.363h1.977c1.165 0 1.906.674 1.906 2.119v.775c0 1.032-.431 2.076-2.02 2.076h-1.82c-1.141 0-2.009-.66-2.009-2.076v-.908l.565-.655c-.339-.21-.622-.697-.622-1.38 0-.564.225-1.093.75-1.275M134.346 9.388h1.432l.267.903c.447-.48 1.047-.976 1.849-.976.278 0 .546.011.718.085v1.822a11.206 11.206 0 0 0-.932-.036c-.703 0-1.214.127-1.635.795v4.565h-1.699V9.388zM141.517 15.11c.71 0 1.479-.554 1.479-.554v-1.312l-1.56.134c-.447.047-.521.415-.521.727v.349c0 .594.29.656.602.656zm-2.302-1.063c0-1.041.507-1.963 1.888-1.963 0 0 1.893.013 1.893 0 0 0 .012-.445 0-.459 0-.762-.321-.882-.862-.882-.56 0-2.176.112-2.706.154V9.732c.849-.367 1.735-.473 2.936-.48 1.388-.005 2.33.528 2.33 2.299v4.994h-1.341l-.357-.788c-.071.156-.976.892-1.96.87-1.24-.037-1.82-.975-1.82-1.906v-.674zM145.328 9.766l1.041-.392.286-1.995h1.414v1.995h1.44v1.442h-1.44v2.872c0 1.054.219 1.279.551 1.417 0 0 .728.283.813.283v1.158h-1.482c-.954 0-1.582-.661-1.582-2.561v-3.169h-1.04v-1.05zM150.227 9.388h1.698v4.795c0 .71.287.967.713.967.683 0 1.056-.195 1.557-.62V9.389h1.698v7.158h-1.365l-.333-.762c-.64.428-1.062.883-2.045.883-1.5 0-1.923-1.15-1.923-2.514V9.388zM156.96 16.546h1.698V9.388h-1.699v7.158zm-.061-9.417c0-.202.097-.336.29-.336h1.274c.182 0 .273.148.273.336v1.196c0 .202-.102.31-.273.31h-1.274c-.17 0-.29-.121-.29-.31V7.129zM159.375 9.766l1.04-.392.286-1.995h1.414v1.995h1.44v1.442h-1.44v2.872c0 1.054.219 1.279.552 1.417 0 0 .727.283.812.283v1.158h-1.481c-.954 0-1.582-.661-1.582-2.561v-3.169h-1.041v-1.05zM84.077 24.67h1.796v-2.009h1.432v2.01h1.82v1.59h-1.82v2.008h-1.432v-2.008h-1.796zM96.32 28.893c.537 0 .845-.341.845-2.167 0-1.598-.296-2.088-.844-2.088-.639 0-1.149.183-1.51.442v3.544c.444.191.922.269 1.51.269zm-3.204-5.787h1.398l.296.722c.403-.36 1.186-.803 1.951-.803 1.586 0 2.103 1.478 2.103 3.627 0 2.07-.318 3.72-2.103 3.72-.546 0-1.367-.166-1.957-.465v3.997h-1.688V23.106zM99.861 23.106h1.431l.267.904c.447-.48 1.047-.977 1.85-.977.277 0 .545.012.717.086v1.822a11.146 11.146 0 0 0-.931-.037c-.704 0-1.215.128-1.636.796v4.564H99.86v-7.158zM104.885 30.264h1.699v-7.158h-1.699v7.158zm-.06-9.416c0-.202.096-.337.29-.337h1.274c.182 0 .273.149.273.337v1.195c0 .203-.102.31-.273.31h-1.274c-.17 0-.29-.12-.29-.31v-1.195zM109.565 26.678l-2.223-3.572h2.051l1.18 2.142 1.215-2.142h2.051l-2.254 3.612 2.157 3.546h-1.954l-1.197-2.122-1.198 2.122h-2.051zM119.755 28.828c.71 0 1.479-.554 1.479-.554v-1.311l-1.56.134c-.447.047-.521.415-.521.727v.349c0 .594.29.655.602.655zm-2.302-1.062c0-1.042.507-1.964 1.888-1.964 0 0 1.893.013 1.893 0 0 0 .012-.445 0-.458 0-.763-.321-.883-.861-.883-.56 0-2.176.113-2.706.154V23.45c.848-.366 1.735-.473 2.935-.48 1.388-.005 2.33.528 2.33 2.3v4.994h-1.34l-.358-.788c-.071.155-.976.891-1.96.87-1.24-.038-1.82-.976-1.82-1.907v-.673zM127.143 28.893c.536 0 .845-.341.845-2.167 0-1.598-.296-2.088-.845-2.088-.639 0-1.148.183-1.51.442v3.544c.444.191.922.269 1.51.269zm-3.204-5.787h1.397l.297.722c.402-.36 1.186-.803 1.95-.803 1.586 0 2.103 1.478 2.103 3.627 0 2.07-.317 3.72-2.103 3.72-.546 0-1.367-.166-1.957-.465v3.997h-1.687V23.106zM133.887 28.893c.537 0 .845-.341.845-2.167 0-1.598-.296-2.088-.845-2.088-.638 0-1.147.183-1.51.442v3.544c.444.191.923.269 1.51.269zm-3.203-5.787h1.396l.297.722c.402-.36 1.186-.803 1.95-.803 1.587 0 2.104 1.478 2.104 3.627 0 2.07-.318 3.72-2.104 3.72-.545 0-1.366-.166-1.956-.465v3.997h-1.687V23.106zM140.642 26.099c.354 0 .537-.194.537-.535 0-.904-.116-1.07-.933-1.07-.896 0-1.227.06-1.214 1.605h1.61zm-.494-3.047c1.863 0 2.73.236 2.73 2.609 0 1.275-.63 1.792-1.795 1.792h-2.051c0 1.292.439 1.37 1.359 1.37.982 0 1.456.005 2.365-.143v1.274c-.909.377-2.293.377-3.3.377-1.637 0-2.123-1.054-2.123-3.68 0-3.076.772-3.599 2.815-3.599zM143.796 19.709h1.698v7.71c0 1.04.226 1.266.559 1.403 0 0 .727.282.813.282v1.16h-1.401c-1.055 0-1.67-.647-1.67-2.547v-8.008z"/>
            </g>
        </g>
    </symbol>

    <symbol id='3933' width="298" height="50" viewBox="0 0 298 50">
        <defs>
            <path id="a" d="M296.874.27H.442V50h296.432V.27z"/>
        </defs>
        <g fill="none" fill-rule="evenodd" transform="translate(.5)">
            <path fill="#FFF" stroke="#CCCBCB" d="M.442 48.757h296.432V1.513H.442z"/>
            <path fill="#A51C7A" d="M12.948 31.201l4.693-.566c.15 1.188.552 2.096 1.208 2.725.656.627 1.45.942 2.381.942 1.001 0 1.843-.377 2.528-1.13.684-.754 1.026-1.772 1.026-3.05 0-1.211-.328-2.17-.983-2.879-.656-.708-1.455-1.062-2.399-1.062-.62 0-1.363.12-2.225.36l.535-3.923c1.311.034 2.311-.248 3.002-.848.69-.6 1.036-1.397 1.036-2.39 0-.846-.254-1.52-.76-2.022-.506-.502-1.18-.754-2.019-.754-.827 0-1.535.286-2.122.857-.586.57-.943 1.404-1.07 2.5l-4.469-.753c.311-1.52.78-2.732 1.407-3.64.626-.908 1.5-1.623 2.623-2.142 1.12-.52 2.378-.78 3.77-.78 2.38 0 4.29.754 5.728 2.262 1.184 1.233 1.777 2.626 1.777 4.18 0 2.204-1.214 3.963-3.641 5.277 1.45.309 2.608 1 3.477 2.073.869 1.073 1.302 2.37 1.302 3.89 0 2.203-.81 4.082-2.432 5.636-1.622 1.552-3.641 2.33-6.056 2.33-2.29 0-4.188-.654-5.694-1.961-1.507-1.31-2.382-3.02-2.623-5.132M43.85 21.538c0-1.553-.36-2.758-1.078-3.615-.719-.857-1.55-1.285-2.493-1.285-.898 0-1.642.351-2.235 1.054-.592.702-.888 1.853-.888 3.452 0 1.622.321 2.813.966 3.572.644.76 1.449 1.14 2.415 1.14.932 0 1.717-.366 2.356-1.097.638-.731.957-1.805.957-3.22M32.877 32.057l4.693-.514c.115.947.414 1.65.897 2.107.483.456 1.122.686 1.915.686 1 0 1.852-.458 2.554-1.371.701-.915 1.15-2.81 1.345-5.688-1.219 1.405-2.743 2.107-4.571 2.107-1.99 0-3.708-.762-5.151-2.287-1.443-1.525-2.166-3.51-2.166-5.954 0-2.548.763-4.6 2.287-6.16 1.524-1.558 3.465-2.338 5.823-2.338 2.565 0 4.67.985 6.315 2.955 1.645 1.972 2.467 5.212 2.467 9.723 0 4.592-.856 7.904-2.57 9.938-1.715 2.032-3.946 3.05-6.695 3.05-1.978 0-3.578-.524-4.797-1.568-1.22-1.045-2.001-2.608-2.346-4.686M52.253 31.201l4.693-.566c.149 1.188.552 2.096 1.208 2.725.656.627 1.449.942 2.38.942 1.002 0 1.844-.377 2.528-1.13.685-.754 1.027-1.772 1.027-3.05 0-1.211-.328-2.17-.983-2.879-.656-.708-1.455-1.062-2.399-1.062-.621 0-1.363.12-2.225.36l.534-3.923c1.312.034 2.312-.248 3.003-.848.69-.6 1.035-1.397 1.035-2.39 0-.846-.253-1.52-.76-2.022-.506-.502-1.179-.754-2.018-.754-.828 0-1.535.286-2.122.857-.587.57-.943 1.404-1.07 2.5l-4.469-.753c.311-1.52.78-2.732 1.406-3.64.628-.908 1.501-1.623 2.623-2.142 1.121-.52 2.378-.78 3.77-.78 2.381 0 4.29.754 5.729 2.262 1.183 1.233 1.776 2.626 1.776 4.18 0 2.204-1.214 3.963-3.64 5.277 1.45.309 2.607 1 3.477 2.073.868 1.073 1.302 2.37 1.302 3.89 0 2.203-.811 4.082-2.432 5.636-1.622 1.552-3.642 2.33-6.057 2.33-2.289 0-4.186-.654-5.693-1.961-1.507-1.31-2.382-3.02-2.623-5.132M71.905 31.201l4.693-.566c.15 1.188.552 2.096 1.208 2.725.656.627 1.45.942 2.381.942 1.001 0 1.844-.377 2.528-1.13.684-.754 1.026-1.772 1.026-3.05 0-1.211-.328-2.17-.983-2.879-.656-.708-1.455-1.062-2.399-1.062-.62 0-1.363.12-2.225.36l.535-3.923c1.311.034 2.311-.248 3.002-.848.69-.6 1.036-1.397 1.036-2.39 0-.846-.254-1.52-.76-2.022-.506-.502-1.18-.754-2.019-.754-.827 0-1.535.286-2.122.857-.586.57-.943 1.404-1.07 2.5l-4.469-.753c.311-1.52.78-2.732 1.407-3.64.627-.908 1.5-1.623 2.623-2.142 1.12-.52 2.378-.78 3.77-.78 2.38 0 4.29.754 5.728 2.262 1.184 1.233 1.777 2.626 1.777 4.18 0 2.204-1.214 3.963-3.641 5.277 1.45.309 2.608 1 3.477 2.073.868 1.073 1.302 2.37 1.302 3.89 0 2.203-.81 4.082-2.432 5.636-1.622 1.552-3.641 2.33-6.056 2.33-2.29 0-4.187-.654-5.694-1.961-1.507-1.31-2.382-3.02-2.623-5.132M101.167.27v12.325l12.627 12.54-12.627 12.54V50H285.16V.27z"/>
            <path fill="#FEFEFE" d="M120.003 10.552c0-2.798 1.504-3.616 3.465-3.648 1.84-.042 3.94.23 4.95.559v2.123c-1.119-.109-3.643-.192-4.277-.192-1.07-.027-1.688.055-1.688 1.37v.69c0 1.12.388 1.36 1.38 1.36h2.022c2.511 0 3.029 2.184 3.029 3.746v.94c0 3.208-1.812 3.802-3.544 3.802-2.187 0-3.619-.147-4.942-.577V18.6c.699.077 2.833.213 4.46.213.737 0 1.575-.134 1.575-1.217v-.76c0-.804-.22-1.32-1.154-1.32h-1.97c-3.087 0-3.306-2.515-3.306-3.743v-1.221zM134.89 15.184c.51 0 .774-.276.774-.765 0-1.295-.167-1.532-1.344-1.532-1.293 0-1.771.084-1.753 2.297h2.323zm-.713-4.362c2.688 0 3.937.337 3.937 3.735 0 1.826-.91 2.566-2.59 2.566h-2.957c0 1.85.634 1.96 1.96 1.96 1.417 0 2.1.01 3.412-.203v1.824c-1.31.54-3.306.54-4.76.54-2.36 0-3.06-1.51-3.06-5.269 0-4.404 1.112-5.153 4.058-5.153zM139.438 10.899h2.063l.385 1.294c.645-.687 1.51-1.398 2.666-1.398.402 0 .787.016 1.035.121v2.61a16.265 16.265 0 0 0-1.343-.052c-1.014 0-1.75.182-2.358 1.139v6.535h-2.448v-10.25zM148.815 10.899l2.029 7.084 2.093-7.084h2.61l-3.371 10.25h-2.739l-3.243-10.25zM156.547 21.148h2.45V10.9h-2.45v10.25zm-.087-13.482c0-.29.14-.483.419-.483h1.838c.261 0 .392.213.392.483v1.711c0 .29-.147.444-.392.444h-1.838c-.245 0-.42-.173-.42-.444V7.666zM163.493 10.803c.91 0 2.744.06 4.278.608v1.679s-1.672-.116-3.23-.116c-1.126 0-1.66.075-1.66 3.096 0 2.624.4 3.003 1.66 3.003 1.61 0 3.352-.18 3.352-.18v1.696c-1.36.762-2.948.636-4.4.655-1.733 0-3.062-.998-3.062-5.23 0-4.222 1.276-5.211 3.062-5.211M173.492 15.184c.51 0 .776-.276.776-.765 0-1.295-.168-1.532-1.346-1.532-1.293 0-1.77.084-1.752 2.297h2.322zm-.712-4.362c2.687 0 3.936.337 3.936 3.735 0 1.826-.909 2.566-2.588 2.566h-2.958c0 1.85.634 1.96 1.96 1.96 1.417 0 2.1.01 3.412-.203v1.824c-1.311.54-3.307.54-4.76.54-2.36 0-3.06-1.51-3.06-5.269 0-4.404 1.112-5.153 4.058-5.153zM119.722 32.78h2.589v-2.875h2.064v2.876H127v2.277h-2.624v2.876h-2.064v-2.876h-2.59zM137.376 38.827c.773 0 1.218-.488 1.218-3.103 0-2.287-.427-2.988-1.218-2.988-.92 0-1.656.261-2.178.632v5.074c.64.274 1.33.385 2.178.385zm-4.62-8.285h2.015l.427 1.032c.58-.515 1.71-1.148 2.813-1.148 2.286 0 3.033 2.115 3.033 5.192 0 2.965-.459 5.326-3.033 5.326-.788 0-1.972-.237-2.821-.664v5.722h-2.434v-15.46zM142.481 30.542h2.064l.384 1.293c.645-.686 1.511-1.398 2.667-1.398.401 0 .787.017 1.035.122v2.609a16.265 16.265 0 0 0-1.343-.052c-1.015 0-1.752.183-2.359 1.14v6.535h-2.448V30.54zM149.727 40.79h2.448V30.541h-2.448v10.25zm-.089-13.481c0-.29.14-.483.42-.483h1.837c.263 0 .393.213.393.483v1.711c0 .29-.148.444-.393.444h-1.837c-.246 0-.42-.173-.42-.444V27.31zM156.474 35.656l-3.205-5.114h2.957l1.702 3.066 1.751-3.066h2.958l-3.25 5.172 3.11 5.077h-2.818l-1.726-3.039-1.727 3.039h-2.957zM171.168 38.735c1.024 0 2.133-.793 2.133-.793v-1.879l-2.249.192c-.646.067-.752.595-.752 1.042v.499c0 .85.417.94.868.94zm-3.319-1.522c0-1.49.73-2.811 2.722-2.811 0 0 2.73.02 2.73 0 0 0 .017-.637 0-.656 0-1.092-.463-1.264-1.243-1.264-.807 0-3.137.16-3.902.22v-1.668c1.224-.524 2.502-.677 4.234-.686 2-.007 3.36.755 3.36 3.29v7.153h-1.934l-.515-1.13c-.103.223-1.408 1.278-2.826 1.246-1.788-.053-2.626-1.396-2.626-2.729v-.965zM181.82 38.827c.774 0 1.22-.488 1.22-3.103 0-2.287-.428-2.988-1.22-2.988-.92 0-1.654.261-2.176.632v5.074c.64.274 1.33.385 2.177.385zm-4.619-8.285h2.014l.429 1.032c.58-.515 1.71-1.148 2.812-1.148 2.287 0 3.032 2.115 3.032 5.192 0 2.965-.457 5.326-3.032 5.326-.787 0-1.971-.237-2.822-.664v5.722h-2.433v-15.46zM191.546 38.827c.774 0 1.219-.488 1.219-3.103 0-2.287-.428-2.988-1.22-2.988-.92 0-1.654.261-2.176.632v5.074c.64.274 1.33.385 2.177.385zm-4.62-8.285h2.015l.428 1.032c.58-.515 1.71-1.148 2.812-1.148 2.287 0 3.033 2.115 3.033 5.192 0 2.965-.458 5.326-3.033 5.326-.787 0-1.97-.237-2.822-.664v5.722h-2.432v-15.46zM201.286 34.826c.51 0 .775-.276.775-.765 0-1.294-.167-1.531-1.345-1.531-1.293 0-1.77.083-1.752 2.296h2.322zm-.712-4.362c2.687 0 3.936.338 3.936 3.735 0 1.827-.909 2.567-2.588 2.567h-2.958c0 1.85.634 1.96 1.96 1.96 1.417 0 2.1.01 3.411-.203v1.824c-1.31.54-3.306.54-4.759.54-2.361 0-3.06-1.51-3.06-5.27 0-4.404 1.112-5.153 4.058-5.153zM205.834 25.678h2.449v11.04c0 1.489.326 1.81.805 2.008 0 0 1.05.405 1.173.405v1.66h-2.02c-1.522 0-2.407-.927-2.407-3.648V25.678zM187.082 9.622c-.322 0-.61.101-.864.306-.252.204-.449.57-.588 1.098-.184.685-.275 1.837-.275 3.458 0 1.621.082 2.734.247 3.34.164.606.37 1.01.62 1.21.251.203.538.303.86.303.323 0 .61-.102.864-.307.253-.204.449-.57.588-1.097.184-.679.275-1.828.275-3.45 0-1.62-.083-2.732-.246-3.34-.165-.606-.372-1.01-.621-1.215a1.322 1.322 0 0 0-.86-.306m0-2.196c1.347 0 2.401.478 3.16 1.433.906 1.13 1.357 3.006 1.357 5.625 0 2.613-.455 4.491-1.367 5.635-.752.942-1.803 1.413-3.15 1.413-1.354 0-2.445-.516-3.274-1.549-.83-1.033-1.243-2.876-1.243-5.527 0-2.601.455-4.473 1.367-5.617.752-.942 1.803-1.413 3.15-1.413M193.886 18.649h2.667v1.894c0 .766-.067 1.37-.2 1.815-.132.44-.384.84-.755 1.192-.368.35-.839.627-1.408.829l-.522-1.093c.537-.177.92-.419 1.149-.727.227-.308.347-.728.36-1.262h-1.29V18.65zM198.688 17.631l2.581-.31c.083.653.304 1.152.665 1.498.36.345.797.517 1.309.517a1.8 1.8 0 0 0 1.39-.621c.376-.414.565-.973.565-1.678 0-.665-.18-1.193-.54-1.582a1.73 1.73 0 0 0-1.32-.584c-.342 0-.75.065-1.224.197l.294-2.158c.721.02 1.271-.137 1.651-.466.38-.33.57-.768.57-1.315 0-.464-.14-.835-.418-1.112-.278-.276-.648-.414-1.11-.414-.456 0-.845.156-1.167.471-.323.314-.519.773-.589 1.376l-2.457-.415c.17-.835.427-1.503.773-2.002.344-.5.826-.892 1.441-1.179.619-.285 1.309-.428 2.075-.428 1.309 0 2.36.415 3.15 1.244.652.679.978 1.445.978 2.299 0 1.213-.668 2.18-2.003 2.903.798.169 1.434.55 1.912 1.14.478.59.717 1.303.717 2.139 0 1.213-.446 2.246-1.338 3.1-.892.854-2.002 1.281-3.33 1.281-1.26 0-2.304-.359-3.132-1.078-.83-.72-1.31-1.66-1.443-2.823M214.1 9.622c-.323 0-.611.101-.865.306-.252.204-.448.57-.588 1.098-.184.685-.275 1.837-.275 3.458 0 1.621.082 2.734.247 3.34.165.606.372 1.01.62 1.21.252.203.538.303.86.303.323 0 .61-.102.864-.307.253-.204.45-.57.589-1.097.183-.679.274-1.828.274-3.45 0-1.62-.082-2.732-.246-3.34-.165-.606-.372-1.01-.621-1.215a1.322 1.322 0 0 0-.86-.306m0-2.196c1.348 0 2.401.478 3.16 1.433.906 1.13 1.357 3.006 1.357 5.625 0 2.613-.455 4.491-1.366 5.635-.753.942-1.803 1.413-3.15 1.413-1.354 0-2.446-.516-3.275-1.549-.83-1.033-1.243-2.876-1.243-5.527 0-2.601.455-4.473 1.367-5.617.753-.942 1.803-1.413 3.15-1.413M235.176 7.822l-.56 2.61c-.537-.534-1.323-.8-2.353-.8-1.031 0-1.866.366-2.506 1.101-.36.415-.616.934-.768 1.556h5.219l-.303 1.46h-5.106a13.624 13.624 0 0 0 .01 1.244h4.83l-.304 1.46h-4.327c.157.672.402 1.2.73 1.584.633.741 1.456 1.111 2.468 1.111 1.215 0 2.182-.37 2.904-1.111v2.883c-.823.407-1.781.612-2.876.612-1.847 0-3.366-.628-4.555-1.885-.81-.853-1.344-1.918-1.604-3.193h-1.404l.303-1.461h.93a12.906 12.906 0 0 1 .01-1.244h-1.243l.303-1.46h1.13c.265-1.25.794-2.296 1.584-3.138 1.196-1.27 2.768-1.904 4.717-1.904 1.062 0 1.987.192 2.771.575M239.811 21.532l2.584-14.285h1.502l-2.612 14.285zM248.83 11.29h1.843v1.366c.66-1.061 1.445-1.593 2.356-1.593.484 0 .904.133 1.26.396.356.264.647.663.875 1.197.332-.534.69-.933 1.075-1.197a2.137 2.137 0 0 1 1.23-.396c.555 0 1.025.15 1.41.448.385.299.672.736.862 1.315.137.427.206 1.117.206 2.072v6.399h-2v-5.72c0-.993-.07-1.634-.207-1.923-.185-.376-.47-.564-.854-.564-.28 0-.543.113-.79.338-.246.226-.425.558-.534.995-.11.437-.163 1.125-.163 2.068v4.806h-2v-5.485c0-.972-.035-1.601-.107-1.884-.07-.282-.181-.494-.33-.631-.15-.138-.354-.207-.61-.207-.307 0-.586.11-.832.33-.247.22-.424.536-.531.951-.106.414-.159 1.103-.159 2.063v4.863h-2V11.29zM261.94 21.296h2V11.29h-2v10.007zm0-11.364h2v-2.45h-2v2.45zM272.864 21.297h-2V16.19c0-1.081-.043-1.78-.127-2.098-.087-.316-.225-.563-.417-.74a.994.994 0 0 0-.695-.262c-.346 0-.656.125-.932.376-.274.25-.463.584-.565 1-.103.414-.154 1.18-.154 2.298v4.533h-2V11.29h1.859v1.47c.659-1.13 1.488-1.697 2.49-1.697.441 0 .845.106 1.21.315.365.212.642.48.83.806.187.327.317.698.39 1.113.075.415.11 1.008.11 1.78v6.22z" />
        </g>
    </symbol>

    <symbol id='3944' width="181" height="34" viewBox="0 0 181 34">
        <g fill="none" fill-rule="evenodd">
            <path fill="#FFF" stroke="#979797" d="M1 32h179V1H1z"/>
            <text fill="#91919B" font-family="Arial-BoldMT, Arial" font-size="23.348" font-weight="bold" transform="translate(9 3.808)">
                <tspan x="0" y="21.192">3944</tspan>
            </text>
            <path fill="#91919B" d="M66.444 0v8.202l9.358 8.345-9.358 8.343v8.202h108V0z"/>
            <g fill="#FFFFFE">
                <path d="M78.888 6.835c0-1.861.994-2.406 2.29-2.428 1.216-.028 2.603.153 3.27.372v1.413c-.738-.073-2.406-.128-2.825-.128-.708-.017-1.116.038-1.116.912v.46c0 .744.257.905.913.905h1.336c1.659 0 2 1.452 2 2.492v.626c0 2.134-1.196 2.529-2.341 2.529-1.445 0-2.391-.097-3.265-.383V12.19a35.22 35.22 0 0 0 2.947.142c.487 0 1.04-.09 1.04-.81v-.505c0-.536-.145-.878-.762-.878h-1.301c-2.04 0-2.185-1.674-2.185-2.492v-.812zM88.725 9.917c.337 0 .512-.184.512-.51 0-.86-.11-1.018-.89-1.018-.853 0-1.17.055-1.157 1.528h1.535zm-.471-2.902c1.776 0 2.602.224 2.602 2.485 0 1.215-.602 1.708-1.711 1.708H87.19c0 1.231.419 1.305 1.296 1.305.936 0 1.387.005 2.254-.137v1.215c-.866.358-2.185.358-3.145.358-1.56 0-2.023-1.004-2.023-3.505 0-2.93.735-3.429 2.682-3.429zM91.73 7.066h1.364l.253.86c.427-.458.999-.93 1.762-.93.266 0 .52.011.684.082v1.736a9.776 9.776 0 0 0-.887-.035c-.67 0-1.157.122-1.56.758v4.348H91.73V7.066zM97.926 7.066l1.34 4.713 1.384-4.713h1.724l-2.227 6.82h-1.81l-2.142-6.82zM103.035 13.886h1.618v-6.82h-1.618v6.82zm-.058-8.971c0-.192.092-.322.277-.322h1.214c.174 0 .259.142.259.322v1.14c0 .19-.097.295-.259.295h-1.214c-.162 0-.277-.116-.277-.295v-1.14zM107.624 7.002c.6 0 1.814.04 2.827.404v1.117s-1.105-.077-2.134-.077c-.744 0-1.098.05-1.098 2.06 0 1.747.265 2 1.098 2 1.064 0 2.214-.12 2.214-.12v1.128c-.898.508-1.947.424-2.907.436-1.145 0-2.023-.664-2.023-3.481 0-2.81.843-3.467 2.023-3.467M114.231 9.917c.337 0 .512-.184.512-.51 0-.86-.11-1.018-.888-1.018-.855 0-1.17.055-1.158 1.528h1.534zm-.47-2.902c1.775 0 2.601.224 2.601 2.485 0 1.215-.6 1.708-1.71 1.708h-1.955c0 1.231.42 1.305 1.295 1.305.936 0 1.387.005 2.254-.137v1.215c-.866.358-2.185.358-3.144.358-1.56 0-2.023-1.004-2.023-3.505 0-2.93.735-3.429 2.682-3.429zM122.412 15.908h.959c.58 0 .65-.318.65-.716v-.498c0-.384-.143-.619-.602-.625h-1.245c-.225 0-.49-.046-.49-.046v1.134c0 .676.324.751.728.751m-.005-5.38h.649c.614 0 .789-.443.779-1.06-.016-.708-.22-.983-.79-.983h-.621c-.655 0-.763.474-.763.983 0 .63.174 1.06.746 1.06m-1.687.83c-.51-.36-.677-1.209-.677-1.89 0-1.63.744-2.428 2.127-2.428h3.734v1.073l-.682.232c.108.282.23.517.23 1.334 0 .983-.366 2.293-2.097 2.293h-1.422c-.185 0-.468.002-.468.3 0 .3.212.345.468.345h1.884c1.11 0 1.816.644 1.816 2.02v.74c0 .981-.411 1.977-1.925 1.977h-1.734c-1.087 0-1.914-.629-1.914-1.978v-.866l.539-.623c-.323-.2-.593-.666-.593-1.316 0-.537.214-1.04.714-1.214M126.598 7.066h1.364l.254.86c.426-.458.998-.93 1.762-.93.265 0 .52.011.684.082v1.736a9.801 9.801 0 0 0-.888-.035c-.67 0-1.157.122-1.558.758v4.348h-1.618V7.066zM133.43 12.518c.676 0 1.408-.527 1.408-.527v-1.25l-1.484.128c-.428.044-.499.395-.499.692v.332c0 .567.277.625.575.625zm-2.194-1.012c0-.992.483-1.871 1.798-1.871 0 0 1.804.012 1.804 0 0 0 .012-.424 0-.436 0-.728-.306-.842-.82-.842-.534 0-2.074.107-2.579.147v-1.11c.81-.35 1.653-.451 2.797-.457 1.322-.005 2.221.502 2.221 2.19v4.759h-1.279l-.34-.751c-.068.149-.93.849-1.867.828-1.18-.035-1.735-.927-1.735-1.816v-.641zM137.061 7.426l.992-.372.272-1.902h1.347v1.902h1.372v1.374h-1.372v2.735c0 1.005.208 1.219.525 1.35 0 0 .694.27.774.27v1.104h-1.41c-.91 0-1.508-.63-1.508-2.44v-3.02h-.992V7.427zM141.729 7.066h1.618v4.567c0 .68.273.922.679.922.65 0 1.006-.184 1.484-.59V7.066h1.618v6.82h-1.301l-.317-.726c-.61.407-1.013.842-1.95.842-1.428 0-1.831-1.096-1.831-2.396v-4.54zM148.143 13.886h1.618v-6.82h-1.618v6.82zm-.058-8.971c0-.192.093-.322.277-.322h1.214c.173 0 .26.142.26.322v1.14c0 .19-.098.295-.26.295h-1.214c-.162 0-.277-.116-.277-.295v-1.14zM150.444 7.426l.992-.372.272-1.902h1.347v1.902h1.372v1.374h-1.372v2.735c0 1.005.208 1.219.525 1.35 0 0 .694.27.774.27v1.104h-1.41c-.91 0-1.508-.63-1.508-2.44v-3.02h-.992V7.427zM78.703 21.627h1.71v-1.914h1.365v1.914h1.733v1.515h-1.733v1.914h-1.365v-1.914h-1.71zM90.368 25.65c.51 0 .805-.325.805-2.065 0-1.522-.283-1.99-.805-1.99-.608 0-1.094.176-1.44.423v3.376c.424.181.88.256 1.44.256zm-3.053-5.514h1.332l.281.688c.385-.343 1.13-.765 1.86-.765 1.51 0 2.003 1.407 2.003 3.455 0 1.973-.302 3.545-2.003 3.545-.522 0-1.304-.158-1.866-.443v3.808h-1.607V20.136zM93.741 20.137h1.364l.253.86c.427-.457.999-.93 1.763-.93.265 0 .519.012.683.082v1.736a10.162 10.162 0 0 0-.887-.035c-.671 0-1.158.122-1.559.758v4.349h-1.617v-6.82zM98.528 26.957h1.618v-6.82h-1.618v6.82zm-.058-8.971c0-.193.092-.322.277-.322h1.214c.173 0 .26.142.26.322v1.138c0 .194-.098.295-.26.295h-1.214c-.162 0-.277-.114-.277-.295v-1.138zM102.987 23.54l-2.118-3.403h1.954l1.124 2.041 1.158-2.041h1.954l-2.148 3.442 2.055 3.378h-1.861l-1.141-2.023-1.141 2.023h-1.954zM112.696 25.589c.677 0 1.409-.528 1.409-.528v-1.25l-1.485.128c-.427.044-.498.396-.498.693v.332c0 .566.276.625.574.625zm-2.193-1.013c0-.991.483-1.871 1.798-1.871 0 0 1.804.013 1.804 0 0 0 .012-.424 0-.436 0-.727-.306-.841-.821-.841-.533 0-2.073.106-2.578.146v-1.11c.809-.35 1.653-.45 2.797-.456 1.322-.005 2.22.502 2.22 2.189v4.759h-1.278l-.34-.751c-.068.149-.93.85-1.867.828-1.181-.035-1.735-.927-1.735-1.815v-.642zM119.734 25.65c.511 0 .805-.325.805-2.065 0-1.522-.282-1.99-.805-1.99-.608 0-1.093.176-1.438.423v3.376c.422.181.878.256 1.438.256zm-3.052-5.514h1.331l.283.688c.383-.343 1.13-.765 1.858-.765 1.511 0 2.004 1.407 2.004 3.455 0 1.973-.303 3.545-2.004 3.545-.52 0-1.303-.158-1.865-.443v3.808h-1.607V20.136zM126.16 25.65c.511 0 .806-.325.806-2.065 0-1.522-.283-1.99-.806-1.99-.608 0-1.093.176-1.438.423v3.376c.422.181.879.256 1.438.256zm-3.052-5.514h1.331l.283.688c.383-.343 1.129-.765 1.858-.765 1.511 0 2.004 1.407 2.004 3.455 0 1.973-.303 3.545-2.004 3.545-.52 0-1.303-.158-1.865-.443v3.808h-1.607V20.136zM132.596 22.988c.337 0 .512-.185.512-.51 0-.86-.11-1.019-.888-1.019-.855 0-1.17.055-1.158 1.53h1.534zm-.47-2.903c1.775 0 2.6.224 2.6 2.486 0 1.214-.6 1.708-1.71 1.708h-1.954c0 1.23.419 1.304 1.295 1.304.936 0 1.387.005 2.254-.136v1.214c-.866.36-2.185.36-3.144.36-1.562 0-2.024-1.006-2.024-3.507 0-2.93.735-3.429 2.682-3.429zM135.6 16.9h1.619v7.347c0 .99.215 1.204.532 1.335 0 0 .694.27.775.27v1.105h-1.335c-1.005 0-1.59-.618-1.59-2.428V16.9z"/>
            </g>
        </g>
    </symbol>

    <symbol id='3944' width="181" height="34" viewBox="0 0 181 34">
        <g fill="none" fill-rule="evenodd">
            <path fill="#FFF" stroke="#979797" d="M1 32h179V1H1z"/>
            <text fill="#91919B" font-family="Arial-BoldMT, Arial" font-size="23.348" font-weight="bold" transform="translate(9 3.808)">
                <tspan x="0" y="21.192">3944</tspan>
            </text>
            <path fill="#91919B" d="M66.444 0v8.202l9.358 8.345-9.358 8.343v8.202h108V0z"/>
            <g fill="#FFFFFE">
                <path d="M78.888 6.835c0-1.861.994-2.406 2.29-2.428 1.216-.028 2.603.153 3.27.372v1.413c-.738-.073-2.406-.128-2.825-.128-.708-.017-1.116.038-1.116.912v.46c0 .744.257.905.913.905h1.336c1.659 0 2 1.452 2 2.492v.626c0 2.134-1.196 2.529-2.341 2.529-1.445 0-2.391-.097-3.265-.383V12.19a35.22 35.22 0 0 0 2.947.142c.487 0 1.04-.09 1.04-.81v-.505c0-.536-.145-.878-.762-.878h-1.301c-2.04 0-2.185-1.674-2.185-2.492v-.812zM88.725 9.917c.337 0 .512-.184.512-.51 0-.86-.11-1.018-.89-1.018-.853 0-1.17.055-1.157 1.528h1.535zm-.471-2.902c1.776 0 2.602.224 2.602 2.485 0 1.215-.602 1.708-1.711 1.708H87.19c0 1.231.419 1.305 1.296 1.305.936 0 1.387.005 2.254-.137v1.215c-.866.358-2.185.358-3.145.358-1.56 0-2.023-1.004-2.023-3.505 0-2.93.735-3.429 2.682-3.429zM91.73 7.066h1.364l.253.86c.427-.458.999-.93 1.762-.93.266 0 .52.011.684.082v1.736a9.776 9.776 0 0 0-.887-.035c-.67 0-1.157.122-1.56.758v4.348H91.73V7.066zM97.926 7.066l1.34 4.713 1.384-4.713h1.724l-2.227 6.82h-1.81l-2.142-6.82zM103.035 13.886h1.618v-6.82h-1.618v6.82zm-.058-8.971c0-.192.092-.322.277-.322h1.214c.174 0 .259.142.259.322v1.14c0 .19-.097.295-.259.295h-1.214c-.162 0-.277-.116-.277-.295v-1.14zM107.624 7.002c.6 0 1.814.04 2.827.404v1.117s-1.105-.077-2.134-.077c-.744 0-1.098.05-1.098 2.06 0 1.747.265 2 1.098 2 1.064 0 2.214-.12 2.214-.12v1.128c-.898.508-1.947.424-2.907.436-1.145 0-2.023-.664-2.023-3.481 0-2.81.843-3.467 2.023-3.467M114.231 9.917c.337 0 .512-.184.512-.51 0-.86-.11-1.018-.888-1.018-.855 0-1.17.055-1.158 1.528h1.534zm-.47-2.902c1.775 0 2.601.224 2.601 2.485 0 1.215-.6 1.708-1.71 1.708h-1.955c0 1.231.42 1.305 1.295 1.305.936 0 1.387.005 2.254-.137v1.215c-.866.358-2.185.358-3.144.358-1.56 0-2.023-1.004-2.023-3.505 0-2.93.735-3.429 2.682-3.429zM122.412 15.908h.959c.58 0 .65-.318.65-.716v-.498c0-.384-.143-.619-.602-.625h-1.245c-.225 0-.49-.046-.49-.046v1.134c0 .676.324.751.728.751m-.005-5.38h.649c.614 0 .789-.443.779-1.06-.016-.708-.22-.983-.79-.983h-.621c-.655 0-.763.474-.763.983 0 .63.174 1.06.746 1.06m-1.687.83c-.51-.36-.677-1.209-.677-1.89 0-1.63.744-2.428 2.127-2.428h3.734v1.073l-.682.232c.108.282.23.517.23 1.334 0 .983-.366 2.293-2.097 2.293h-1.422c-.185 0-.468.002-.468.3 0 .3.212.345.468.345h1.884c1.11 0 1.816.644 1.816 2.02v.74c0 .981-.411 1.977-1.925 1.977h-1.734c-1.087 0-1.914-.629-1.914-1.978v-.866l.539-.623c-.323-.2-.593-.666-.593-1.316 0-.537.214-1.04.714-1.214M126.598 7.066h1.364l.254.86c.426-.458.998-.93 1.762-.93.265 0 .52.011.684.082v1.736a9.801 9.801 0 0 0-.888-.035c-.67 0-1.157.122-1.558.758v4.348h-1.618V7.066zM133.43 12.518c.676 0 1.408-.527 1.408-.527v-1.25l-1.484.128c-.428.044-.499.395-.499.692v.332c0 .567.277.625.575.625zm-2.194-1.012c0-.992.483-1.871 1.798-1.871 0 0 1.804.012 1.804 0 0 0 .012-.424 0-.436 0-.728-.306-.842-.82-.842-.534 0-2.074.107-2.579.147v-1.11c.81-.35 1.653-.451 2.797-.457 1.322-.005 2.221.502 2.221 2.19v4.759h-1.279l-.34-.751c-.068.149-.93.849-1.867.828-1.18-.035-1.735-.927-1.735-1.816v-.641zM137.061 7.426l.992-.372.272-1.902h1.347v1.902h1.372v1.374h-1.372v2.735c0 1.005.208 1.219.525 1.35 0 0 .694.27.774.27v1.104h-1.41c-.91 0-1.508-.63-1.508-2.44v-3.02h-.992V7.427zM141.729 7.066h1.618v4.567c0 .68.273.922.679.922.65 0 1.006-.184 1.484-.59V7.066h1.618v6.82h-1.301l-.317-.726c-.61.407-1.013.842-1.95.842-1.428 0-1.831-1.096-1.831-2.396v-4.54zM148.143 13.886h1.618v-6.82h-1.618v6.82zm-.058-8.971c0-.192.093-.322.277-.322h1.214c.173 0 .26.142.26.322v1.14c0 .19-.098.295-.26.295h-1.214c-.162 0-.277-.116-.277-.295v-1.14zM150.444 7.426l.992-.372.272-1.902h1.347v1.902h1.372v1.374h-1.372v2.735c0 1.005.208 1.219.525 1.35 0 0 .694.27.774.27v1.104h-1.41c-.91 0-1.508-.63-1.508-2.44v-3.02h-.992V7.427zM78.703 21.627h1.71v-1.914h1.365v1.914h1.733v1.515h-1.733v1.914h-1.365v-1.914h-1.71zM90.368 25.65c.51 0 .805-.325.805-2.065 0-1.522-.283-1.99-.805-1.99-.608 0-1.094.176-1.44.423v3.376c.424.181.88.256 1.44.256zm-3.053-5.514h1.332l.281.688c.385-.343 1.13-.765 1.86-.765 1.51 0 2.003 1.407 2.003 3.455 0 1.973-.302 3.545-2.003 3.545-.522 0-1.304-.158-1.866-.443v3.808h-1.607V20.136zM93.741 20.137h1.364l.253.86c.427-.457.999-.93 1.763-.93.265 0 .519.012.683.082v1.736a10.162 10.162 0 0 0-.887-.035c-.671 0-1.158.122-1.559.758v4.349h-1.617v-6.82zM98.528 26.957h1.618v-6.82h-1.618v6.82zm-.058-8.971c0-.193.092-.322.277-.322h1.214c.173 0 .26.142.26.322v1.138c0 .194-.098.295-.26.295h-1.214c-.162 0-.277-.114-.277-.295v-1.138zM102.987 23.54l-2.118-3.403h1.954l1.124 2.041 1.158-2.041h1.954l-2.148 3.442 2.055 3.378h-1.861l-1.141-2.023-1.141 2.023h-1.954zM112.696 25.589c.677 0 1.409-.528 1.409-.528v-1.25l-1.485.128c-.427.044-.498.396-.498.693v.332c0 .566.276.625.574.625zm-2.193-1.013c0-.991.483-1.871 1.798-1.871 0 0 1.804.013 1.804 0 0 0 .012-.424 0-.436 0-.727-.306-.841-.821-.841-.533 0-2.073.106-2.578.146v-1.11c.809-.35 1.653-.45 2.797-.456 1.322-.005 2.22.502 2.22 2.189v4.759h-1.278l-.34-.751c-.068.149-.93.85-1.867.828-1.181-.035-1.735-.927-1.735-1.815v-.642zM119.734 25.65c.511 0 .805-.325.805-2.065 0-1.522-.282-1.99-.805-1.99-.608 0-1.093.176-1.438.423v3.376c.422.181.878.256 1.438.256zm-3.052-5.514h1.331l.283.688c.383-.343 1.13-.765 1.858-.765 1.511 0 2.004 1.407 2.004 3.455 0 1.973-.303 3.545-2.004 3.545-.52 0-1.303-.158-1.865-.443v3.808h-1.607V20.136zM126.16 25.65c.511 0 .806-.325.806-2.065 0-1.522-.283-1.99-.806-1.99-.608 0-1.093.176-1.438.423v3.376c.422.181.879.256 1.438.256zm-3.052-5.514h1.331l.283.688c.383-.343 1.129-.765 1.858-.765 1.511 0 2.004 1.407 2.004 3.455 0 1.973-.303 3.545-2.004 3.545-.52 0-1.303-.158-1.865-.443v3.808h-1.607V20.136zM132.596 22.988c.337 0 .512-.185.512-.51 0-.86-.11-1.019-.888-1.019-.855 0-1.17.055-1.158 1.53h1.534zm-.47-2.903c1.775 0 2.6.224 2.6 2.486 0 1.214-.6 1.708-1.71 1.708h-1.954c0 1.23.419 1.304 1.295 1.304.936 0 1.387.005 2.254-.136v1.214c-.866.36-2.185.36-3.144.36-1.562 0-2.024-1.006-2.024-3.507 0-2.93.735-3.429 2.682-3.429zM135.6 16.9h1.619v7.347c0 .99.215 1.204.532 1.335 0 0 .694.27.775.27v1.105h-1.335c-1.005 0-1.59-.618-1.59-2.428V16.9z"/>
            </g>
        </g>
    </symbol>

    <symbol id="fab-chatlive" width="21" height="23" viewBox="0 0 21 23">
        <g fill="none" fill-rule="evenodd">
            <path stroke="#FFF" stroke-width="1.53" d="M13.173 14.148v6.814l6.727-5.09V1H1v13.148z"/>
            <path fill="#FFF" d="M5.307 8.981h2.057V6.924H5.307zM9.422 8.981h2.057V6.924H9.422zM13.536 8.981h2.057V6.924h-2.057z"/>
        </g>
    </symbol>

    <symbol id="fab-chatbot" width="33" height="29" viewBox="0 0 33 29">
        <g id="DESKTOP-Comportements" stroke="none" stroke-width="1" fill="none" fill-rule="evenodd">
            <g id="INTERACT_ACCES" transform="translate(-642.000000, -295.000000)">
                <g id="Sticky_ouvert1/2" transform="translate(282.000000, 192.000000)">
                    <path d="M0,6.59134774 C0,2.9510469 2.95641644,0 6.59936851,0 L407,0 L407,394 L6.59936851,394 C2.95463792,394 0,391.041199 0,387.408652 L0,6.59134774 Z" id="Rectangle-2" fill-opacity="0.851505888" ></path>
                    <g id="Sticky_ferm" transform="translate(348.000000, 85.000000)">
                        <path d="M58.34,213.34 L58.34,0.660000041 L6.59631199,0.660000041 C3.31343495,0.660000041 0.660000041,3.32085027 0.660000041,6.60971433 L0.660000041,207.390286 C0.660000041,210.673503 3.31977778,213.34 6.59631199,213.34 L58.34,213.34 Z" id="Rectangle-5"  stroke-width="1.32000008" ></path>
                        <g id="bot-avatar" transform="translate(12.000000, 18.000000)" fill="currentColor">
                            <path d="M30.837675,20.0212588 C30.837675,23.8936118 27.790125,27.0409647 24.047925,27.0409647 L12.981375,27.0409647 C9.235875,27.0409647 6.189975,23.8936118 6.189975,20.0212588 L6.189975,8.57990588 C6.189975,4.70925882 9.235875,1.5602 12.981375,1.5602 L24.047925,1.5602 C27.790125,1.5602 30.837675,4.70925882 30.837675,8.57990588 L30.837675,20.0212588 Z M24.047925,0.00102352941 L12.981375,0.00102352941 C8.404275,0.00102352941 4.680225,3.84949412 4.680225,8.57990588 L4.680225,19.1597882 L0.000825,23.0321412 L5.916075,24.4633765 C7.373025,26.9334941 9.981675,28.6018471 12.981375,28.6018471 L24.047925,28.6018471 C28.623375,28.6018471 32.345775,24.7516706 32.345775,20.0212588 L32.345775,8.57990588 C32.345775,3.84949412 28.623375,0.00102352941 24.047925,0.00102352941 L24.047925,0.00102352941 Z" id="Fill-5"></path>
                            <path d="M18.8083936,18.4681434 C16.0092314,18.4681434 13.2098361,17.3999068 11.0286436,15.2634335 C10.6125456,14.8558354 10.6022889,14.1848301 11.0053328,13.7642738 C11.4086098,13.3437174 12.0727348,13.3331152 12.4888328,13.7407132 C16.0325422,17.2116578 21.5842449,17.2116578 25.1279544,13.7407132 C25.5442855,13.3333508 26.2081774,13.3439531 26.6114544,13.7642738 C27.0144983,14.1848301 27.0042416,14.8558354 26.5881436,15.2634335 C24.406951,17.3999068 21.6075557,18.4681434 18.8083936,18.4681434" id="Fill-4"></path>
                        </g>
                    </g>
                </g>
            </g>
        </g>
    </symbol>

    <symbol id="fab-contact" width="21" height="23" viewBox="0 0 21 23">
        <g fill="none" fill-rule="evenodd">
            <path stroke="#FFF" stroke-width="1.53" d="M13.173 14.148v6.814l6.727-5.09V1H1v13.148z"/>
            <path fill="#FFF" d="M5.307 8.981h2.057V6.924H5.307zM9.422 8.981h2.057V6.924H9.422zM13.536 8.981h2.057V6.924h-2.057z"/>
        </g>
    </symbol>

    <symbol id="back-arrow" width="13" height="23" viewBox="0 0 13 23">
        <g fill="none" fill-rule="evenodd" stroke="#333" stroke-linecap="round" stroke-linejoin="round" stroke-width="2">
            <path d="M11.5 1.5l-10 10M1.5 11.5l10 10"/>
        </g>
    </symbol>

    <symbol id="popin-valid" width="42" height="42" viewBox="0 0 42 42">
        <g fill="currentColor" fill-rule="nonzero">
            <path d="M21 42C9.402 42 0 32.598 0 21S9.402 0 21 0s21 9.402 21 21-9.402 21-21 21zm0-2c10.493 0 19-8.507 19-19S31.493 2 21 2 2 10.507 2 21s8.507 19 19 19z"/>
            <path d="M15.624 19.585a1.575 1.575 0 1 0-2.248 2.206l4.697 4.788c.617.629 1.63.63 2.248 0l8.303-8.456a1.575 1.575 0 0 0-2.248-2.207l-7.179 7.311-3.573-3.642z"/>
        </g>
    </symbol>

    <symbol id="sobot" width="42" height="42" viewBox="0 0 168 148">
        <g id="ONBOARDING_TUTO" stroke="none" stroke-width="1" fill="none" fill-rule="evenodd">
            <g id="Accueil_sobot" transform="translate(-94.000000, -169.000000)">
                <g id="Avatar/bouche_content" transform="translate(94.000000, 169.000000)">
                    <g id="Group-7" transform="translate(0.000000, 7.000000)">
                        <polygon id="Fill-1" fill="#E60028" points="0 112.339893 32.4419763 119.931663 30.1403432 107.207899 26.1467811 91.4222781"></polygon>
                        <g id="Group-6" transform="translate(27.627219, 0.635426)">
                            <path d="M94.3501917,132.467456 L38.4612805,132.467456 C17.5027006,132.467456 0.354771598,115.319527 0.354771598,94.3609467 L0.354771598,38.4710828 C0.354771598,17.512503 17.5027006,0.364573964 38.4612805,0.364573964 L94.3501917,0.364573964 C115.308772,0.364573964 132.456701,17.512503 132.456701,38.4710828 L132.456701,94.3609467 C132.456701,115.319527 115.308772,132.467456 94.3501917,132.467456 Z" id="Stroke-4" stroke="#E60028" stroke-width="15" fill="#FFFFFF"></path>
                            <path d="M36.8629982,66.3728692 C53.7165544,82.7053189 80.4939982,82.7053189 97.3475544,66.3728692" id="Stroke-2" stroke="#1A171B" stroke-width="9" stroke-linecap="round" stroke-linejoin="round"></path>
                        </g>
                    </g>
                </g>
            </g>
        </g>
    </symbol>

    <symbol id="list" width="46" height="39" viewBox="0 0 42 35">
        <defs>
            <path id="a" d="M0 .106h40.695V31.59H0z"/>
            <path id="c" d="M.278.17h19.67v32.604H.279z"/>
            <path id="e" d="M.153.17h19.67v32.604H.154z"/>
        </defs>
        <g fill="none" fill-rule="evenodd">
            <g transform="translate(.7 3)">
                <path fill="currentColor" d="M38.267.106c-.255 0 .256 24.43-.366 24.612-.404.117-16.726 4.006-17.553 4.006-.828 0-16.85-3.717-17.254-3.835-.622-.182-.41-24.783-.665-24.783A2.42 2.42 0 0 0 .68.823 2.387 2.387 0 0 0 0 2.505v22.037c0 1.421.766 2.432 2.103 2.773.159.04 15.224 3.895 15.5 3.964.493.125 1.632.31 2.745.31 1.112 0 2.25-.185 2.745-.31l15.5-3.964c1.336-.34 2.102-1.352 2.102-2.773V2.505c0-1.345-1.067-2.399-2.428-2.399"/>
            </g>
            <g transform="translate(2)">
                <path fill="currentColor" d="M3.02.17C1.482.17.278 1.41.278 2.99v22.452c0 2.269 1.568 2.973 2.241 3.17l3.95 1.16 9.812 2.88c.28.081.566.122.849.122 1.554 0 2.819-1.253 2.819-2.794V7.527c0-1.51-.871-2.75-2.219-3.162-.184-.057-2.24-.66-5.577-1.637C8.615 1.69 4.211.4 3.933.315A3.024 3.024 0 0 0 3.02.17m0 2.062c.094 0 .197.016.307.051.397.126 13.39 3.925 13.813 4.055.595.181.768.76.768 1.188V29.98c0 .36-.304.732-.778.732-.09 0-.185-.014-.286-.043L3.087 26.63c-.626-.183-.768-.615-.768-1.189V2.99c0-.395.253-.757.701-.757"/>
            </g>
            <g transform="translate(20)">
                <path fill="currentColor" d="M17.082.17c-.304 0-.613.05-.917.146-.275.085-4.679 1.376-8.217 2.412-3.337.978-5.392 1.58-5.577 1.637C1.024 4.776.153 6.017.153 7.527V29.98c0 1.54 1.264 2.794 2.819 2.794.283 0 .568-.041.849-.122l9.826-2.884 3.936-1.156c.673-.197 2.24-.901 2.24-3.17V2.99c0-1.581-1.203-2.82-2.741-2.82m0 2.063c.447 0 .7.362.7.757v22.452c0 .574-.142 1.006-.767 1.189L3.257 30.669c-.1.03-.196.043-.285.043a.756.756 0 0 1-.778-.732V7.527c0-.428.173-1.007.768-1.188.424-.13 13.415-3.93 13.812-4.055.111-.035.214-.05.308-.05" />
            </g>
        </g>
    </symbol>

    <symbol id="chatbot" width="33" height="29" viewBox="0 0 33 29">
        <g id="DESKTOP-Comportements" stroke="none" stroke-width="1" fill="none" fill-rule="evenodd">
            <g id="INTERACT_ACCES" transform="translate(-642.000000, -295.000000)">
                <g id="Sticky_ouvert1/2" transform="translate(282.000000, 192.000000)">
                    <path d="M0,6.59134774 C0,2.9510469 2.95641644,0 6.59936851,0 L407,0 L407,394 L6.59936851,394 C2.95463792,394 0,391.041199 0,387.408652 L0,6.59134774 Z" id="Rectangle-2" fill-opacity="0.851505888" ></path>
                    <g id="Sticky_ferm" transform="translate(348.000000, 85.000000)">
                        <path d="M58.34,213.34 L58.34,0.660000041 L6.59631199,0.660000041 C3.31343495,0.660000041 0.660000041,3.32085027 0.660000041,6.60971433 L0.660000041,207.390286 C0.660000041,210.673503 3.31977778,213.34 6.59631199,213.34 L58.34,213.34 Z" id="Rectangle-5"  stroke-width="1.32000008" ></path>
                        <g id="bot-avatar" transform="translate(12.000000, 18.000000)" fill="currentColor">
                            <path d="M30.837675,20.0212588 C30.837675,23.8936118 27.790125,27.0409647 24.047925,27.0409647 L12.981375,27.0409647 C9.235875,27.0409647 6.189975,23.8936118 6.189975,20.0212588 L6.189975,8.57990588 C6.189975,4.70925882 9.235875,1.5602 12.981375,1.5602 L24.047925,1.5602 C27.790125,1.5602 30.837675,4.70925882 30.837675,8.57990588 L30.837675,20.0212588 Z M24.047925,0.00102352941 L12.981375,0.00102352941 C8.404275,0.00102352941 4.680225,3.84949412 4.680225,8.57990588 L4.680225,19.1597882 L0.000825,23.0321412 L5.916075,24.4633765 C7.373025,26.9334941 9.981675,28.6018471 12.981375,28.6018471 L24.047925,28.6018471 C28.623375,28.6018471 32.345775,24.7516706 32.345775,20.0212588 L32.345775,8.57990588 C32.345775,3.84949412 28.623375,0.00102352941 24.047925,0.00102352941 L24.047925,0.00102352941 Z" id="Fill-5"></path>
                            <path d="M18.8083936,18.4681434 C16.0092314,18.4681434 13.2098361,17.3999068 11.0286436,15.2634335 C10.6125456,14.8558354 10.6022889,14.1848301 11.0053328,13.7642738 C11.4086098,13.3437174 12.0727348,13.3331152 12.4888328,13.7407132 C16.0325422,17.2116578 21.5842449,17.2116578 25.1279544,13.7407132 C25.5442855,13.3333508 26.2081774,13.3439531 26.6114544,13.7642738 C27.0144983,14.1848301 27.0042416,14.8558354 26.5881436,15.2634335 C24.406951,17.3999068 21.6075557,18.4681434 18.8083936,18.4681434" id="Fill-4"></path>
                        </g>
                    </g>
                </g>
            </g>
        </g>
    </symbol>

</svg>
